<?xml version="1.0" encoding="UTF-8" standalone="no"?>
<!-- Created with Inkscape (http://www.inkscape.org/) -->

<svg
   xmlns:dc="http://purl.org/dc/elements/1.1/"
   xmlns:cc="http://creativecommons.org/ns#"
   xmlns:rdf="http://www.w3.org/1999/02/22-rdf-syntax-ns#"
   xmlns:svg="http://www.w3.org/2000/svg"
   xmlns="http://www.w3.org/2000/svg"
   xmlns:sodipodi="http://sodipodi.sourceforge.net/DTD/sodipodi-0.dtd"
   xmlns:inkscape="http://www.inkscape.org/namespaces/inkscape"
   version="1.1"
   id="svg4489"
   xml:space="preserve"
   width="800"
   height="800"
   viewBox="0 0 800 800"
   sodipodi:docname="round-halftone-green.svg"
   inkscape:version="0.92.4 (5da689c313, 2019-01-14)"><metadata
     id="metadata4495"><rdf:RDF><cc:Work
         rdf:about=""><dc:format>image/svg+xml</dc:format><dc:type
           rdf:resource="http://purl.org/dc/dcmitype/StillImage" /><dc:title></dc:title></cc:Work></rdf:RDF></metadata><defs
     id="defs4493"><clipPath
       clipPathUnits="userSpaceOnUse"
       id="clipPath4505"><path
         d="M 0,600 H 600 V 0 H 0 Z"
         id="path4503"
         inkscape:connector-curvature="0" /></clipPath><linearGradient
       x1="0"
       y1="0"
       x2="1"
       y2="0"
       gradientUnits="userSpaceOnUse"
       gradientTransform="matrix(584.22656,0,0,-584.22656,6.2607422,323.49023)"
       spreadMethod="pad"
       id="linearGradient4533"><stop
         style="stop-opacity:1;stop-color:#ffffff"
         offset="0"
         id="stop4521" /><stop
         style="stop-opacity:1;stop-color:#ffffff"
         offset="0.011236"
         id="stop4523" /><stop
         style="stop-opacity:1;stop-color:#bfdf14"
         offset="0.3078321"
         id="stop4525" /><stop
         style="stop-opacity:1;stop-color:#bfdf14"
         offset="0.460674"
         id="stop4527" /><stop
         style="stop-opacity:1;stop-color:#0a6b38"
         offset="0.764045"
         id="stop4529" /><stop
         style="stop-opacity:1;stop-color:#bfdf14"
         offset="1"
         id="stop4531" /></linearGradient></defs><sodipodi:namedview
     pagecolor="#ffffff"
     bordercolor="#666666"
     borderopacity="1"
     objecttolerance="10"
     gridtolerance="10"
     guidetolerance="10"
     inkscape:pageopacity="0"
     inkscape:pageshadow="2"
     inkscape:window-width="1920"
     inkscape:window-height="1018"
     id="namedview4491"
     showgrid="false"
     inkscape:zoom="0.89768817"
     inkscape:cx="462.71186"
     inkscape:cy="422.0339"
     inkscape:window-x="-8"
     inkscape:window-y="-8"
     inkscape:window-maximized="1"
     inkscape:current-layer="g4497" /><g
     id="g4497"
     inkscape:groupmode="layer"
     inkscape:label="abstract-dots-1053--publicdomainvectors.org"
     transform="matrix(1.3333333,0,0,-1.3333333,0,800)"><g
       id="g4499"><g
         id="g4501"
         clip-path="url(#clipPath4505)"><path
           d="M 600,0 H 1.118 V 600 H 600 Z"
           style="fill:#231f20;fill-opacity:1;fill-rule:nonzero;stroke:none"
           id="path4507"
           inkscape:connector-curvature="0" /><g
           id="g4509"><g
             id="g4511"><g
               id="g4517"><g
                 id="g4519"><path
                   d="m 346.946,497.997 c 0.18,0.057 0.26,0.136 0.172,0.175 -0.083,0.046 -0.3,0.03 -0.481,-0.023 -0.181,-0.055 -0.261,-0.137 -0.174,-0.175 0.084,-0.043 0.3,-0.03 0.483,0.023 m -29.895,-5.784 c 0.508,-0.092 1.396,0.042 1.984,0.306 0.587,0.258 0.647,0.551 0.138,0.645 -0.508,0.094 -1.391,-0.044 -1.975,-0.306 -0.586,-0.258 -0.651,-0.552 -0.147,-0.645 m 9.777,2.584 c 0.341,-0.09 1.004,-0.012 1.48,0.176 0.477,0.183 0.583,0.407 0.241,0.5 -0.341,0.087 -1.002,0.008 -1.475,-0.177 -0.474,-0.189 -0.585,-0.406 -0.246,-0.499 m -28.159,-9.6 c 0.914,-0.07 2.251,0.235 2.983,0.667 0.726,0.437 0.571,0.838 -0.343,0.9 -0.912,0.061 -2.236,-0.234 -2.963,-0.663 -0.731,-0.429 -0.588,-0.84 0.323,-0.904 m 39.016,11.613 c 0.339,0.121 0.454,0.269 0.253,0.342 -0.203,0.064 -0.636,0.033 -0.977,-0.083 -0.339,-0.117 -0.452,-0.27 -0.255,-0.341 0.201,-0.071 0.638,-0.032 0.979,0.082 m -30.094,-7.804 c 0.698,-0.085 1.812,0.12 2.486,0.467 0.671,0.346 0.646,0.701 -0.055,0.78 -0.698,0.086 -1.803,-0.124 -2.472,-0.468 -0.671,-0.345 -0.655,-0.69 0.041,-0.779 m -34.904,-33.894 c -2.686,-0.472 -5.024,-1.728 -5.23,-2.826 -0.207,-1.111 1.844,-1.637 4.591,-1.163 2.757,0.479 5.115,1.769 5.264,2.875 0.142,1.093 -1.93,1.586 -4.625,1.114 m -1.187,2.854 c 2.389,0.32 4.662,1.377 5.067,2.357 0.397,0.971 -1.19,1.49 -3.535,1.173 -2.338,-0.314 -4.582,-1.35 -5.024,-2.32 -0.447,-0.979 1.111,-1.527 3.492,-1.21 m 6.777,8.351 c 0.572,0.851 -0.604,1.374 -2.619,1.18 -2.005,-0.194 -4.107,-1.035 -4.71,-1.881 -0.606,-0.856 0.538,-1.399 2.573,-1.208 2.042,0.195 4.179,1.05 4.756,1.909 m 5.13,9.549 c 1.427,0.02 3.192,0.558 3.937,1.19 0.738,0.631 0.182,1.117 -1.236,1.088 -1.408,-0.026 -3.148,-0.553 -3.897,-1.177 -0.752,-0.629 -0.221,-1.124 1.196,-1.101 m 7.115,4.944 c 1.156,-0.03 2.712,0.377 3.467,0.907 0.751,0.53 0.42,0.979 -0.731,1.003 -1.149,0.029 -2.684,-0.377 -3.441,-0.9 -0.758,-0.526 -0.446,-0.978 0.705,-1.01 m -12.896,-10.421 c 1.721,0.095 3.681,0.779 4.371,1.521 0.681,0.739 -0.155,1.251 -1.857,1.15 -1.696,-0.099 -3.627,-0.771 -4.328,-1.503 -0.705,-0.738 0.102,-1.264 1.814,-1.168 m 85.463,27.642 c 0.378,0.108 0.544,0.27 0.371,0.363 -0.176,0.087 -0.621,0.075 -1,-0.032 -0.378,-0.107 -0.544,-0.268 -0.372,-0.362 0.172,-0.092 0.622,-0.079 1.001,0.031 m -42.214,-10.253 c 0.857,-0.136 2.252,0.112 3.105,0.535 0.85,0.429 0.838,0.875 -0.026,0.998 -0.857,0.127 -2.235,-0.114 -3.086,-0.533 -0.848,-0.423 -0.85,-0.873 0.007,-1 m -17.765,-9.08 c 1.365,-0.076 3.226,0.388 4.15,1.019 0.917,0.63 0.548,1.189 -0.814,1.254 -1.353,0.063 -3.189,-0.387 -4.108,-1.01 -0.926,-0.626 -0.586,-1.197 0.772,-1.263 m 27.698,12.653 c 0.649,-0.133 1.805,0.017 2.577,0.353 0.772,0.333 0.868,0.722 0.215,0.854 -0.651,0.131 -1.795,-0.027 -2.565,-0.355 -0.767,-0.336 -0.874,-0.713 -0.227,-0.852 m 22.349,5.236 c 0.533,0.18 0.72,0.418 0.411,0.533 -0.305,0.119 -0.985,0.072 -1.517,-0.102 -0.532,-0.176 -0.72,-0.417 -0.415,-0.533 0.303,-0.123 0.986,-0.074 1.521,0.102 m -41.597,-13.03 c 1.098,-0.108 2.728,0.229 3.633,0.756 0.9,0.523 0.734,1.027 -0.366,1.131 -1.093,0.098 -2.702,-0.23 -3.602,-0.75 -0.902,-0.522 -0.756,-1.024 0.335,-1.137 m -23.643,-14.994 c -0.854,-0.872 0.045,-1.531 2.023,-1.47 1.992,0.064 4.292,0.831 5.124,1.709 0.823,0.872 -0.116,1.514 -2.085,1.444 -1.958,-0.069 -4.215,-0.823 -5.062,-1.683 m 53.218,25.697 c 0.465,-0.137 1.38,-0.038 2.048,0.21 0.665,0.254 0.826,0.564 0.358,0.697 -0.464,0.135 -1.377,0.035 -2.04,-0.211 -0.663,-0.249 -0.827,-0.56 -0.366,-0.696 M 299.067,475.9 c -1.641,0.009 -3.693,-0.582 -4.599,-1.318 -0.912,-0.742 -0.323,-1.357 1.329,-1.375 1.661,-0.012 3.751,0.584 4.653,1.335 0.896,0.745 0.268,1.353 -1.383,1.358 m -16.028,-13.994 c -0.74,-1.01 0.541,-1.704 2.881,-1.539 2.352,0.165 4.841,1.134 5.548,2.15 0.692,1.008 -0.63,1.671 -2.945,1.503 -2.305,-0.17 -4.751,-1.114 -5.484,-2.114 m -2.77,-7.281 c -0.555,-1.165 1.19,-1.876 3.921,-1.577 2.745,0.301 5.391,1.502 5.893,2.668 0.495,1.153 -1.295,1.83 -3.984,1.527 -2.676,-0.306 -5.279,-1.47 -5.83,-2.618 m 92.474,44.148 c 0.202,0.048 0.304,0.129 0.236,0.184 -0.074,0.048 -0.289,0.053 -0.491,0.005 -0.199,-0.05 -0.301,-0.127 -0.237,-0.184 0.073,-0.05 0.291,-0.055 0.492,-0.005 m -18.382,-6.322 c 0.592,-0.194 1.787,-0.085 2.672,0.227 0.881,0.32 1.109,0.728 0.51,0.923 -0.595,0.191 -1.786,0.091 -2.658,-0.227 -0.875,-0.32 -1.112,-0.726 -0.524,-0.923 m -54.893,-33.917 c -2.638,-0.127 -5.485,-1.181 -6.387,-2.368 -0.91,-1.2 0.504,-2.089 3.187,-1.975 2.699,0.121 5.611,1.205 6.476,2.416 0.858,1.199 -0.622,2.055 -3.276,1.927 m 10.897,13.467 c -1.895,0.061 -4.304,-0.591 -5.4,-1.461 -1.103,-0.877 -0.467,-1.65 1.441,-1.72 1.921,-0.073 4.377,0.596 5.47,1.481 1.082,0.882 0.398,1.639 -1.511,1.7 m 7.747,5.687 c -1.577,0.118 -3.749,-0.377 -4.864,-1.116 -1.122,-0.739 -0.767,-1.442 0.813,-1.573 1.591,-0.131 3.801,0.374 4.92,1.125 1.116,0.744 0.718,1.444 -0.869,1.564 m -19.999,-13.942 c -1.035,-1.029 -0.051,-1.861 2.222,-1.855 2.291,0.007 4.984,0.866 5.997,1.905 0.999,1.033 -0.041,1.845 -2.305,1.825 -2.249,-0.018 -4.886,-0.856 -5.914,-1.875 m 80.358,33.083 c 0.598,0.164 0.869,0.415 0.604,0.567 -0.266,0.149 -0.966,0.14 -1.561,-0.022 -0.6,-0.157 -0.869,-0.414 -0.607,-0.564 0.264,-0.152 0.962,-0.139 1.564,0.019 m -45.668,-11.664 c 1.03,-0.195 2.734,0.074 3.797,0.585 1.057,0.514 1.069,1.075 0.032,1.258 -1.03,0.181 -2.714,-0.078 -3.766,-0.584 -1.056,-0.506 -1.089,-1.071 -0.063,-1.259 m 10.544,4.003 c 0.799,-0.198 2.248,-0.023 3.235,0.386 0.982,0.411 1.123,0.899 0.32,1.093 -0.799,0.195 -2.236,0.022 -3.214,-0.385 -0.979,-0.406 -1.135,-0.898 -0.341,-1.094 m 45.652,8.647 c 0.425,0.097 0.65,0.268 0.507,0.38 -0.141,0.117 -0.602,0.126 -1.023,0.028 -0.42,-0.099 -0.652,-0.272 -0.506,-0.379 0.142,-0.113 0.601,-0.125 1.022,-0.029 m -66.043,-17.372 c 1.295,-0.159 3.254,0.203 4.36,0.83 1.105,0.621 0.938,1.255 -0.361,1.415 -1.287,0.159 -3.217,-0.209 -4.317,-0.825 -1.104,-0.618 -0.966,-1.246 0.318,-1.42 m 42.666,14.561 c 0.415,-0.176 1.363,-0.136 2.116,0.104 0.753,0.231 1.023,0.572 0.603,0.748 -0.417,0.176 -1.36,0.127 -2.108,-0.105 -0.75,-0.233 -1.025,-0.573 -0.611,-0.747 m 33.45,3.04 c 0.223,0.041 0.358,0.124 0.306,0.19 -0.057,0.058 -0.275,0.081 -0.497,0.036 -0.224,-0.041 -0.358,-0.127 -0.308,-0.191 0.051,-0.063 0.277,-0.08 0.499,-0.035 m -56.039,-15.453 c -1.294,-0.601 -1.38,-1.302 -0.179,-1.571 1.211,-0.267 3.258,0.007 4.565,0.617 1.3,0.607 1.355,1.308 0.136,1.57 -1.21,0.26 -3.231,-0.019 -4.522,-0.616 m 22.999,6.659 c 0.724,-0.27 2.231,-0.173 3.359,0.218 1.128,0.388 1.439,0.918 0.707,1.185 -0.73,0.266 -2.223,0.162 -3.341,-0.218 -1.117,-0.39 -1.444,-0.915 -0.725,-1.185 m -33.978,-11.792 c -1.346,-0.724 -1.241,-1.519 0.251,-1.765 1.501,-0.249 3.826,0.151 5.177,0.888 1.342,0.738 1.196,1.519 -0.312,1.761 -1.497,0.233 -3.78,-0.158 -5.116,-0.884 m 72.157,18.052 c 0.673,0.141 1.043,0.414 0.823,0.595 -0.213,0.19 -0.934,0.217 -1.603,0.077 -0.669,-0.143 -1.037,-0.407 -0.825,-0.594 0.213,-0.187 0.933,-0.223 1.605,-0.078 m 11.167,0.441 c 0.473,0.087 0.765,0.257 0.663,0.395 -0.107,0.135 -0.573,0.173 -1.046,0.094 -0.469,-0.078 -0.764,-0.257 -0.66,-0.392 0.099,-0.141 0.574,-0.182 1.043,-0.097 m 10.499,-0.383 c 0.246,0.039 0.43,0.125 0.389,0.195 -0.023,0.077 -0.257,0.1 -0.503,0.071 -0.248,-0.035 -0.424,-0.121 -0.391,-0.194 0.036,-0.072 0.257,-0.1 0.505,-0.072 M 321.98,471.489 c -1.359,-0.871 -1.008,-1.751 0.807,-1.961 1.83,-0.215 4.435,0.334 5.793,1.22 1.352,0.879 0.945,1.743 -0.885,1.947 -1.815,0.194 -4.361,-0.345 -5.715,-1.206 m 32.194,14.045 c 0.952,-0.276 2.727,-0.097 3.958,0.394 1.229,0.488 1.435,1.109 0.473,1.381 -0.956,0.268 -2.71,0.086 -3.928,-0.398 -1.22,-0.488 -1.45,-1.107 -0.503,-1.377 M 319.409,466.24 c -2.17,0.136 -4.982,-0.576 -6.31,-1.597 -1.339,-1.032 -0.678,-2.002 1.505,-2.158 2.202,-0.153 5.081,0.574 6.408,1.622 1.313,1.044 0.586,1.99 -1.603,2.133 m -11.282,-11.724 c 2.617,-0.078 5.771,0.872 7.008,2.11 1.227,1.225 0.095,2.255 -2.492,2.313 -2.568,0.058 -5.639,-0.866 -6.895,-2.071 -1.269,-1.218 -0.217,-2.276 2.379,-2.352 m 70.08,37.654 c 0.526,-0.248 1.767,-0.219 2.768,0.08 1,0.296 1.374,0.738 0.84,0.992 -0.53,0.248 -1.76,0.206 -2.753,-0.083 -0.992,-0.297 -1.378,-0.739 -0.855,-0.989 m 12.272,2.118 c 0.353,-0.226 1.331,-0.233 2.178,-0.018 0.85,0.217 1.242,0.569 0.884,0.795 -0.361,0.219 -1.334,0.228 -2.178,0.016 -0.84,-0.216 -1.241,-0.572 -0.884,-0.793 m -51.552,-25.144 c 1.716,-0.362 4.45,0.05 6.088,0.918 1.627,0.866 1.531,1.837 -0.196,2.183 -1.709,0.341 -4.388,-0.067 -6.006,-0.914 -1.626,-0.851 -1.584,-1.827 0.114,-2.187 m 76.678,22.754 c 0.29,-0.27 1.287,-0.346 2.243,-0.161 0.956,0.185 1.494,0.562 1.202,0.834 -0.288,0.276 -1.292,0.343 -2.239,0.158 -0.947,-0.188 -1.485,-0.553 -1.206,-0.831 m -81.097,-26.085 c -2.064,0.305 -5.037,-0.266 -6.672,-1.278 -1.644,-1.021 -1.335,-2.112 0.724,-2.441 2.079,-0.33 5.125,0.251 6.777,1.29 1.637,1.035 1.254,2.123 -0.829,2.429 m -16.4,-9.129 c -1.629,-1.217 -0.976,-2.431 1.494,-2.71 2.494,-0.283 5.857,0.508 7.476,1.749 1.605,1.233 0.861,2.428 -1.621,2.683 -2.461,0.249 -5.734,-0.517 -7.349,-1.722 m 123.999,35.471 c 0.527,0.058 0.901,0.242 0.843,0.404 -0.057,0.161 -0.536,0.243 -1.059,0.175 -0.524,-0.056 -0.904,-0.245 -0.841,-0.402 0.063,-0.158 0.534,-0.244 1.057,-0.177 m -53.284,-4.289 c 0.637,-0.345 2.197,-0.338 3.48,0.022 1.284,0.356 1.794,0.929 1.145,1.273 -0.647,0.342 -2.196,0.326 -3.465,-0.027 -1.27,-0.355 -1.789,-0.921 -1.16,-1.268 m 41.454,4.518 c 0.754,0.119 1.236,0.393 1.078,0.617 -0.161,0.22 -0.891,0.303 -1.641,0.189 -0.747,-0.125 -1.228,-0.39 -1.076,-0.615 0.15,-0.224 0.885,-0.314 1.639,-0.191 m -25.172,-2.152 c 1.132,0.271 1.679,0.741 1.225,1.056 -0.455,0.313 -1.73,0.352 -2.851,0.084 -1.12,-0.263 -1.669,-0.729 -1.23,-1.048 0.448,-0.31 1.725,-0.358 2.856,-0.092 m -29.544,-5.7 c 0.856,-0.367 2.7,-0.291 4.112,0.174 1.41,0.463 1.835,1.125 0.968,1.496 -0.87,0.355 -2.694,0.275 -4.088,-0.181 -1.394,-0.459 -1.843,-1.124 -0.992,-1.489 m -25.174,-9.334 c 1.392,-0.375 3.824,-0.099 5.415,0.616 1.584,0.713 1.715,1.588 0.305,1.949 -1.395,0.361 -3.786,0.083 -5.354,-0.617 -1.575,-0.704 -1.745,-1.573 -0.366,-1.948 m 17.735,7.208 c -1.116,0.365 -3.222,0.197 -4.717,-0.375 -1.497,-0.571 -1.829,-1.342 -0.728,-1.715 1.107,-0.375 3.241,-0.212 4.755,0.371 1.509,0.583 1.814,1.352 0.69,1.719 m 84.894,8.627 c 0.272,0.025 0.489,0.11 0.484,0.196 -0.013,0.084 -0.233,0.137 -0.506,0.115 -0.272,-0.024 -0.483,-0.11 -0.483,-0.197 0.012,-0.084 0.23,-0.134 0.505,-0.114 m 27.193,-6.998 c 0.303,0.006 0.569,0.093 0.598,0.191 0.023,0.097 -0.197,0.173 -0.499,0.166 -0.302,-0.006 -0.56,-0.095 -0.598,-0.191 -0.017,-0.1 0.198,-0.175 0.499,-0.166 m -111.038,-8.517 c -1.816,-0.666 -2.295,-1.614 -1.052,-2.116 1.255,-0.511 3.777,-0.375 5.623,0.299 1.839,0.678 2.278,1.628 0.997,2.125 -1.271,0.489 -3.755,0.351 -5.568,-0.308 m 45.965,9.086 c 1.453,0.317 2.189,0.922 1.646,1.351 -0.535,0.432 -2.14,0.514 -3.577,0.201 -1.434,-0.318 -2.175,-0.911 -1.653,-1.342 0.529,-0.426 2.131,-0.527 3.584,-0.21 m -18.35,-2.615 c 0.736,-0.468 2.642,-0.51 4.249,-0.086 1.606,0.421 2.286,1.138 1.529,1.602 -0.755,0.455 -2.645,0.486 -4.23,0.074 -1.584,-0.415 -2.278,-1.122 -1.548,-1.59 m 46.329,5.234 c 1.073,0.148 1.782,0.537 1.577,0.866 -0.202,0.327 -1.225,0.467 -2.291,0.327 -1.062,-0.15 -1.771,-0.533 -1.575,-0.86 0.196,-0.327 1.216,-0.478 2.289,-0.333 M 337.708,456.875 c -2.31,0.457 -5.753,-0.131 -7.73,-1.312 -1.994,-1.191 -1.775,-2.553 0.522,-3.042 2.325,-0.494 5.865,0.104 7.869,1.326 1.988,1.215 1.674,2.566 -0.661,3.028 m 4.432,6.479 c -1.959,-0.987 -2.033,-2.2 -0.134,-2.707 1.923,-0.509 5.107,-0.104 7.089,0.907 1.97,1.008 1.968,2.218 0.029,2.706 -1.919,0.482 -5.036,0.079 -6.984,-0.906 m 12.494,4.221 c 1.565,-0.517 4.416,-0.263 6.341,0.571 1.919,0.828 2.167,1.908 0.574,2.406 -1.576,0.496 -4.371,0.234 -6.263,-0.576 -1.902,-0.814 -2.202,-1.886 -0.652,-2.401 m 114.32,18.488 c 0.584,0.031 1.054,0.215 1.054,0.402 -0.012,0.187 -0.481,0.309 -1.065,0.273 -0.582,-0.035 -1.046,-0.216 -1.051,-0.402 0.005,-0.187 0.477,-0.312 1.062,-0.273 m -42.641,0.609 c 0.345,-0.385 1.659,-0.52 2.933,-0.292 1.276,0.224 2.019,0.719 1.664,1.105 -0.354,0.381 -1.668,0.511 -2.931,0.286 -1.261,-0.224 -2.003,-0.711 -1.666,-1.099 m 30.148,0.451 c 0.844,0.081 1.464,0.366 1.378,0.63 -0.084,0.263 -0.828,0.407 -1.666,0.323 -0.836,-0.084 -1.455,-0.363 -1.375,-0.626 0.076,-0.263 0.821,-0.412 1.663,-0.327 m -74.221,-8.931 c 0.98,-0.491 3.191,-0.459 4.927,0.083 1.733,0.541 2.321,1.381 1.313,1.86 -0.997,0.48 -3.184,0.434 -4.894,-0.095 -1.711,-0.533 -2.317,-1.354 -1.346,-1.848 m -26.454,-17.173 c -2.274,-0.936 -2.77,-2.248 -1.074,-2.944 1.714,-0.706 5.008,-0.497 7.327,0.46 2.306,0.958 2.733,2.282 0.976,2.959 -1.736,0.667 -4.959,0.451 -7.229,-0.475 m -6.616,-6.728 c -2.109,0.669 -5.688,0.294 -8.028,-0.839 -2.355,-1.139 -2.61,-2.629 -0.538,-3.336 2.104,-0.713 5.774,-0.34 8.166,0.831 2.372,1.171 2.536,2.667 0.4,3.344 m 27.031,10.597 c 2.215,0.776 2.848,1.942 1.429,2.607 -1.406,0.654 -4.293,0.573 -6.471,-0.182 -2.182,-0.757 -2.86,-1.912 -1.498,-2.589 1.384,-0.678 4.315,-0.609 6.54,0.164 m 14.837,5.208 c 2.105,0.621 2.893,1.638 1.775,2.284 -1.111,0.634 -3.675,0.656 -5.746,0.053 -2.067,-0.605 -2.886,-1.617 -1.816,-2.265 1.082,-0.655 3.679,-0.687 5.787,-0.072 m 46.565,9.258 c 1.64,0.255 2.636,0.888 2.229,1.41 -0.414,0.511 -2.048,0.728 -3.666,0.473 -1.614,-0.252 -2.607,-0.876 -2.226,-1.396 0.389,-0.521 2.027,-0.738 3.663,-0.487 m -34.268,-2.916 c -1.939,-0.47 -2.856,-1.345 -2.045,-1.96 0.819,-0.618 3.089,-0.733 5.061,-0.256 1.97,0.484 2.872,1.365 2.021,1.98 -0.844,0.606 -3.099,0.71 -5.037,0.236 m 79.069,2.88 c 0.941,0.033 1.711,0.317 1.728,0.625 0.007,0.308 -0.735,0.526 -1.668,0.489 -0.935,-0.036 -1.71,-0.315 -1.723,-0.62 -0.023,-0.307 0.725,-0.53 1.663,-0.494 m 24.575,-5.25 c 0.333,-0.014 0.655,0.067 0.729,0.176 0.06,0.115 -0.149,0.212 -0.483,0.227 -0.334,0.014 -0.658,-0.066 -0.728,-0.176 -0.061,-0.114 0.147,-0.21 0.482,-0.227 m -11.477,3.148 c 0.65,0 1.234,0.171 1.304,0.387 0.069,0.214 -0.401,0.388 -1.05,0.388 -0.646,0.004 -1.235,-0.169 -1.299,-0.385 -0.069,-0.214 0.397,-0.388 1.045,-0.39 m -27.364,3.156 c 1.202,0.093 2.109,0.486 2.016,0.876 -0.081,0.39 -1.129,0.622 -2.323,0.532 -1.187,-0.098 -2.087,-0.482 -2.006,-0.869 0.074,-0.39 1.114,-0.632 2.313,-0.539 m -15.043,0.008 c 1.434,0.168 2.401,0.674 2.178,1.139 -0.237,0.454 -1.57,0.694 -2.988,0.525 -1.417,-0.167 -2.388,-0.67 -2.174,-1.129 0.211,-0.464 1.553,-0.703 2.984,-0.535 m -35.506,-2.685 c 0.584,-0.577 2.538,-0.751 4.354,-0.392 1.817,0.359 2.789,1.119 2.173,1.688 -0.618,0.559 -2.557,0.734 -4.346,0.377 -1.789,-0.357 -2.768,-1.104 -2.181,-1.673 m 89.927,-9.221 c 1.044,-0.027 1.999,0.235 2.14,0.589 0.132,0.353 -0.598,0.658 -1.637,0.687 -1.037,0.028 -1.995,-0.232 -2.127,-0.585 -0.149,-0.35 0.585,-0.66 1.624,-0.691 m -51.938,4.166 c 0.209,-0.621 1.865,-0.984 3.693,-0.816 1.836,0.173 3.14,0.817 2.902,1.436 -0.237,0.616 -1.897,0.975 -3.707,0.802 -1.806,-0.172 -3.096,-0.806 -2.888,-1.422 m -30.972,-4.321 c 2.221,0.39 3.485,1.322 2.828,2.071 -0.652,0.738 -2.949,1.016 -5.13,0.629 -2.176,-0.389 -3.443,-1.298 -2.834,-2.045 0.617,-0.752 2.919,-1.047 5.136,-0.655 m 12.978,3.08 c 0.402,-0.687 2.374,-1.032 4.409,-0.756 2.041,0.272 3.35,1.061 2.914,1.748 -0.427,0.682 -2.406,1.007 -4.417,0.736 -2.001,-0.275 -3.298,-1.041 -2.906,-1.728 m -53.879,-10.92 c 1.143,-0.859 4.127,-0.996 6.652,-0.31 2.522,0.688 3.585,1.937 2.385,2.777 -1.184,0.832 -4.134,0.948 -6.604,0.277 -2.47,-0.678 -3.566,-1.901 -2.433,-2.744 m 137.374,4.573 c 0.717,-0.051 1.43,0.107 1.594,0.348 0.162,0.244 -0.287,0.479 -1.004,0.531 -0.713,0.046 -1.424,-0.106 -1.587,-0.347 -0.163,-0.244 0.281,-0.48 0.997,-0.532 M 349.671,446.721 c 1.819,-0.942 5.563,-0.824 8.333,0.263 2.757,1.087 3.441,2.707 1.563,3.615 -1.85,0.893 -5.512,0.761 -8.21,-0.293 -2.71,-1.057 -3.477,-2.656 -1.686,-3.585 m 54.454,21.006 c -2.329,-0.524 -3.529,-1.582 -2.675,-2.382 0.866,-0.806 3.501,-1.036 5.88,-0.506 2.383,0.53 3.565,1.612 2.651,2.412 -0.907,0.785 -3.521,0.998 -5.856,0.476 m 72.054,4.132 c 1.604,0.085 2.848,0.598 2.778,1.141 -0.069,0.539 -1.416,0.901 -3.004,0.816 -1.58,-0.089 -2.813,-0.59 -2.762,-1.128 0.052,-0.542 1.391,-0.917 2.988,-0.829 M 366.392,454.306 c 1.46,-0.902 4.812,-0.928 7.465,-0.057 2.645,0.877 3.542,2.293 2.026,3.175 -1.498,0.865 -4.795,0.872 -7.386,0.023 -2.593,-0.85 -3.546,-2.25 -2.105,-3.141 m 126.002,16.44 c 1.337,0.02 2.473,0.4 2.527,0.855 0.057,0.451 -0.981,0.801 -2.311,0.78 -1.324,-0.02 -2.455,-0.399 -2.512,-0.849 -0.065,-0.452 0.959,-0.801 2.296,-0.786 m 40.137,-10.226 c 0.366,-0.041 0.76,0.025 0.883,0.146 0.119,0.123 -0.079,0.258 -0.444,0.302 -0.366,0.049 -0.763,-0.021 -0.88,-0.148 -0.123,-0.12 0.076,-0.26 0.441,-0.3 m -92.513,3.022 c -2.42,-0.274 -4.083,-1.201 -3.726,-2.084 0.37,-0.888 2.657,-1.397 5.123,-1.126 2.476,0.276 4.15,1.223 3.74,2.115 -0.403,0.884 -2.707,1.367 -5.137,1.095 m 104.605,-14.618 c 0.783,-0.121 1.645,0.007 1.93,0.271 0.277,0.273 -0.126,0.583 -0.911,0.7 -0.779,0.119 -1.638,-0.006 -1.921,-0.272 -0.283,-0.267 0.122,-0.582 0.902,-0.699 m -49.754,12.637 c -0.155,-0.623 1.152,-1.151 2.922,-1.18 1.775,-0.028 3.329,0.464 3.469,1.092 0.133,0.625 -1.189,1.15 -2.95,1.168 -1.754,0.022 -3.291,-0.46 -3.441,-1.08 m -91.84,-7.691 c 2.825,0.567 4.362,1.869 3.443,2.896 -0.908,1.012 -3.876,1.369 -6.635,0.811 -2.755,-0.557 -4.308,-1.828 -3.465,-2.851 0.856,-1.033 3.836,-1.425 6.657,-0.856 m 112.043,3.96 c 1.482,-0.084 2.88,0.268 3.125,0.786 0.24,0.518 -0.761,1.002 -2.233,1.082 -1.464,0.081 -2.841,-0.272 -3.099,-0.78 -0.24,-0.521 0.735,-1.003 2.207,-1.088 m 15.805,-3.831 c 1.148,-0.119 2.318,0.11 2.615,0.509 0.287,0.402 -0.397,0.81 -1.542,0.928 -1.139,0.113 -2.317,-0.102 -2.599,-0.507 -0.303,-0.394 0.381,-0.811 1.526,-0.93 m -143.516,-2.04 c -1.203,1.068 -4.516,1.33 -7.421,0.599 -2.902,-0.735 -4.355,-2.198 -3.227,-3.285 1.143,-1.101 4.494,-1.399 7.473,-0.648 2.976,0.752 4.39,2.246 3.175,3.334 m 28.918,6.81 c 0.591,-0.968 3.228,-1.424 5.879,-1.014 2.657,0.409 4.282,1.53 3.631,2.493 -0.643,0.95 -3.276,1.383 -5.878,0.975 -2.594,-0.407 -4.221,-1.5 -3.632,-2.454 M 368.59,445.752 c -1.53,1.116 -5.208,1.263 -8.252,0.329 -3.048,-0.936 -4.363,-2.617 -2.917,-3.768 1.466,-1.172 5.215,-1.35 8.343,-0.384 3.122,0.967 4.375,2.679 2.826,3.823 m 107.268,17.104 c -0.012,-0.72 1.619,-1.263 3.65,-1.21 2.037,0.053 3.692,0.689 3.675,1.415 -0.018,0.721 -1.663,1.253 -3.677,1.196 -2.006,-0.064 -3.631,-0.684 -3.648,-1.401 m 79.791,-20.168 c 0.397,-0.076 0.869,-0.038 1.054,0.096 0.19,0.133 0.019,0.31 -0.376,0.39 -0.393,0.085 -0.87,0.045 -1.053,-0.096 -0.186,-0.135 -0.017,-0.303 0.375,-0.39 m -95.683,21.866 c -2.227,-0.158 -3.896,-0.932 -3.735,-1.735 0.164,-0.809 2.122,-1.343 4.381,-1.192 2.271,0.154 3.964,0.946 3.76,1.757 -0.195,0.806 -2.171,1.323 -4.406,1.17 m -20.334,-13.377 c -0.317,1.118 -2.905,1.811 -5.768,1.558 -2.848,-0.249 -4.94,-1.344 -4.686,-2.457 0.262,-1.125 2.822,-1.849 5.736,-1.602 2.924,0.248 5.038,1.372 4.718,2.501 m 95.358,-10.111 c 1.613,-0.23 3.316,0.064 3.798,0.641 0.473,0.584 -0.443,1.222 -2.051,1.442 -1.596,0.222 -3.283,-0.067 -3.764,-0.638 -0.487,-0.573 0.413,-1.219 2.017,-1.445 m -57.98,8.879 c 2.493,-0.008 4.614,0.752 4.713,1.694 0.11,0.932 -1.819,1.679 -4.28,1.681 -2.445,-0.005 -4.521,-0.748 -4.665,-1.67 -0.128,-0.931 1.751,-1.698 4.232,-1.705 m -21.187,3.813 c -2.656,-0.119 -4.767,-1.033 -4.716,-2.055 0.047,-1.031 2.272,-1.78 4.98,-1.678 2.721,0.114 4.855,1.048 4.762,2.089 -0.098,1.029 -2.351,1.76 -5.026,1.644 m 95.292,-18.501 c 1.243,-0.236 2.659,-0.077 3.153,0.361 0.491,0.438 -0.114,0.98 -1.357,1.212 -1.236,0.235 -2.634,0.07 -3.131,-0.359 -0.5,-0.433 0.098,-0.98 1.335,-1.214 m 23.401,-15.409 c 0.417,-0.132 0.973,-0.127 1.243,0.012 0.271,0.136 0.148,0.359 -0.271,0.489 -0.416,0.13 -0.971,0.127 -1.24,-0.013 -0.269,-0.137 -0.149,-0.356 0.268,-0.488 m -60.37,27.217 c -0.411,-0.706 0.809,-1.416 2.743,-1.598 1.944,-0.178 3.863,0.249 4.256,0.966 0.402,0.707 -0.853,1.42 -2.785,1.588 -1.92,0.172 -3.8,-0.258 -4.214,-0.956 m 50.41,-18.935 c 0.838,-0.211 1.866,-0.142 2.3,0.141 0.424,0.298 0.097,0.69 -0.742,0.895 -0.838,0.211 -1.864,0.146 -2.294,-0.141 -0.429,-0.286 -0.101,-0.692 0.736,-0.895 m -70.639,21.98 c -0.291,-0.823 1.26,-1.573 3.483,-1.682 2.238,-0.104 4.277,0.489 4.555,1.319 0.267,0.828 -1.318,1.567 -3.533,1.666 -2.202,0.095 -4.205,-0.488 -4.505,-1.303 M 392.59,441.607 c 3.287,0.586 5.262,2.123 4.42,3.42 -0.838,1.274 -4.1,1.83 -7.298,1.253 -3.191,-0.574 -5.172,-2.066 -4.43,-3.354 0.759,-1.303 4.03,-1.902 7.308,-1.319 m 19.187,8.646 c -3.025,-0.403 -5.077,-1.689 -4.587,-2.888 0.496,-1.216 3.409,-1.889 6.507,-1.483 3.112,0.405 5.178,1.731 4.602,2.943 -0.564,1.198 -3.486,1.831 -6.522,1.428 m -44.01,-9.498 c -3.356,-0.779 -5.25,-2.498 -4.222,-3.872 1.049,-1.394 4.704,-1.898 8.159,-1.107 3.458,0.797 5.318,2.57 4.175,3.948 -1.129,1.351 -4.753,1.8 -8.112,1.031 m 122.361,-5.453 c 2.693,-0.226 5.282,0.461 5.765,1.523 0.463,1.059 -1.318,2.07 -3.982,2.279 -2.642,0.206 -5.168,-0.467 -5.686,-1.5 -0.497,-1.05 1.227,-2.077 3.903,-2.302 m 21.589,-3.511 c 2.413,-0.318 4.884,0.188 5.522,1.11 0.615,0.931 -0.826,1.914 -3.219,2.219 -2.376,0.3 -4.803,-0.194 -5.451,-1.098 -0.644,-0.918 0.754,-1.915 3.148,-2.231 m -89.972,4.34 c 3.362,0.187 5.99,1.489 5.845,2.89 -0.138,1.382 -2.931,2.325 -6.215,2.128 -3.268,-0.198 -5.847,-1.455 -5.783,-2.827 0.063,-1.389 2.811,-2.378 6.153,-2.191 m -23.164,-2.95 c 3.555,0.368 6.127,1.9 5.735,3.401 -0.388,1.48 -3.511,2.358 -6.969,1.99 -3.442,-0.371 -5.981,-1.848 -5.694,-3.325 0.3,-1.497 3.393,-2.433 6.928,-2.066 m 170.384,-19.887 c -1.309,0.387 -2.961,0.338 -3.701,-0.114 -0.743,-0.455 -0.293,-1.147 1.013,-1.538 1.313,-0.397 2.986,-0.348 3.728,0.111 0.747,0.455 0.278,1.156 -1.04,1.541 m -129.518,26.441 c -0.146,-1.279 2.259,-2.303 5.4,-2.274 3.162,0.029 5.8,1.116 5.898,2.41 0.082,1.282 -2.373,2.274 -5.473,2.228 -3.078,-0.044 -5.676,-1.097 -5.825,-2.364 m 148.456,-47.878 c -0.421,0.205 -1.068,0.255 -1.43,0.117 -0.366,-0.129 -0.325,-0.401 0.101,-0.597 0.421,-0.205 1.068,-0.253 1.435,-0.117 0.367,0.133 0.322,0.406 -0.106,0.597 m -58.276,36.88 c -0.736,-0.777 0.325,-1.707 2.399,-2.087 2.09,-0.384 4.386,-0.052 5.125,0.727 0.726,0.786 -0.379,1.712 -2.459,2.084 -2.067,0.367 -4.327,0.045 -5.065,-0.724 m 51.212,-25.656 c -0.871,0.326 -2.069,0.353 -2.679,0.065 -0.61,-0.29 -0.405,-0.79 0.464,-1.113 0.873,-0.331 2.082,-0.363 2.693,-0.069 0.614,0.287 0.395,0.786 -0.478,1.117 m -30.381,16.824 c 1.722,-0.414 3.758,-0.24 4.536,0.388 0.777,0.623 -10e-4,1.454 -1.72,1.861 -1.708,0.402 -3.714,0.223 -4.492,-0.389 -0.777,-0.619 -0.034,-1.453 1.676,-1.86 m -177.171,14.423 c -3.617,-0.567 -6.105,-2.285 -5.57,-3.869 0.554,-1.606 4.013,-2.471 7.742,-1.897 3.743,0.575 6.239,2.356 5.581,3.959 -0.654,1.575 -4.121,2.374 -7.753,1.807 m 95.584,7.096 c -2.874,0.088 -5.466,-0.767 -5.801,-1.923 -0.342,-1.166 1.733,-2.205 4.652,-2.314 2.942,-0.106 5.595,0.769 5.881,1.957 0.289,1.172 -1.835,2.189 -4.732,2.28 m 104.862,-58.686 c 1.328,-0.6 3.256,-0.717 4.297,-0.273 1.039,0.455 0.795,1.306 -0.545,1.895 -1.331,0.592 -3.239,0.711 -4.27,0.265 -1.028,-0.45 -0.803,-1.286 0.518,-1.887 m -14.518,11.212 c 1.774,-0.655 4.145,-0.665 5.285,-0.021 1.136,0.64 0.601,1.682 -1.18,2.326 -1.77,0.634 -4.101,0.633 -5.235,0.013 -1.13,-0.636 -0.633,-1.668 1.13,-2.318 m -17.933,9.629 c 2.177,-0.645 4.882,-0.5 6.025,0.328 1.138,0.823 0.273,2.011 -1.909,2.641 -2.159,0.626 -4.816,0.477 -5.947,-0.335 -1.138,-0.812 -0.327,-1.991 1.831,-2.634 m 45.527,-32.35 c -0.863,0.474 -2.224,0.643 -3.044,0.378 -0.819,-0.268 -0.787,-0.859 0.066,-1.341 0.866,-0.474 2.232,-0.648 3.059,-0.383 0.827,0.263 0.785,0.864 -0.081,1.346 m -210.282,55.614 c -3.811,-0.308 -6.899,-1.967 -6.922,-3.737 -0.021,-1.797 3.125,-3.039 7.05,-2.746 3.95,0.299 7.088,2.027 7,3.837 -0.093,1.781 -3.293,2.952 -7.128,2.646 m 118.759,-6.383 c -0.963,-1.139 0.517,-2.475 3.329,-2.975 2.838,-0.506 5.927,0.033 6.869,1.198 0.942,1.15 -0.618,2.483 -3.438,2.962 -2.794,0.475 -5.813,-0.047 -6.76,-1.185 m -49.043,6.605 c -0.629,-1.419 1.507,-2.778 4.817,-3.022 3.341,-0.248 6.544,0.733 7.131,2.177 0.578,1.431 -1.646,2.76 -4.932,2.982 -3.258,0.219 -6.377,-0.737 -7.016,-2.137 M 590.217,357.43 c -0.404,0.279 -1.118,0.411 -1.595,0.301 -0.476,-0.109 -0.539,-0.423 -0.134,-0.7 0.405,-0.277 1.118,-0.416 1.599,-0.304 0.476,0.11 0.537,0.424 0.13,0.703 m -119.083,67.276 c -0.809,-1.286 1.002,-2.646 4.08,-3.029 3.103,-0.389 6.278,0.365 7.054,1.677 0.775,1.295 -1.125,2.637 -4.196,3.003 -3.042,0.353 -6.131,-0.38 -6.938,-1.651 m -68.814,4.726 c -3.632,-0.117 -6.743,-1.522 -6.982,-3.168 -0.239,-1.672 2.563,-2.97 6.288,-2.878 3.752,0.093 6.928,1.558 7.081,3.248 0.139,1.668 -2.727,2.909 -6.387,2.798 m 24.146,-4.825 c 3.552,-0.085 6.767,1.128 7.13,2.701 0.368,1.551 -2.18,2.843 -5.659,2.909 -3.452,0.058 -6.582,-1.112 -7.02,-2.638 -0.448,-1.545 2.024,-2.882 5.549,-2.972 m 91.794,-10.309 c -1.079,-0.982 0.066,-2.258 2.574,-2.849 2.531,-0.592 5.462,-0.255 6.538,0.742 1.062,1.002 -0.146,2.272 -2.67,2.848 -2.502,0.566 -5.38,0.24 -6.442,-0.741 m 58.542,-96.166 c -0.586,-0.066 -0.782,-0.411 -0.443,-0.782 0.348,-0.368 1.1,-0.617 1.693,-0.558 0.59,0.06 0.786,0.41 0.439,0.783 -0.339,0.375 -1.1,0.618 -1.689,0.557 m 3.543,15.68 c -0.792,0.647 -2.27,1.015 -3.313,0.812 -1.043,-0.204 -1.258,-0.89 -0.481,-1.545 0.785,-0.654 2.271,-1.021 3.324,-0.826 1.051,0.21 1.266,0.907 0.47,1.559 m -5.171,16.214 c -1.275,0.827 -3.385,1.192 -4.739,0.812 -1.357,-0.387 -1.441,-1.374 -0.194,-2.223 1.259,-0.851 3.399,-1.22 4.77,-0.834 1.371,0.391 1.436,1.393 0.163,2.245 m -26.042,25.873 c 1.609,0.829 1.125,2.273 -1.059,3.232 -2.166,0.949 -5.192,1.069 -6.781,0.261 -1.596,-0.806 -1.165,-2.234 0.976,-3.208 2.168,-0.979 5.249,-1.107 6.864,-0.285 m -122.041,35.505 c 3.646,-0.425 7.429,0.623 8.398,2.334 0.957,1.694 -1.21,3.362 -4.8,3.75 -3.55,0.381 -7.21,-0.64 -8.234,-2.285 -1.017,-1.674 1.028,-3.375 4.636,-3.799 m 46.974,-4.101 c -1.354,-1.37 0.053,-3.066 3.193,-3.799 3.177,-0.737 6.863,-0.192 8.212,1.204 1.32,1.403 -0.187,3.089 -3.343,3.791 -3.125,0.693 -6.71,0.153 -8.062,-1.196 m -90.75,7.567 c 0.539,1.953 -2.252,3.518 -6.2,3.524 -3.915,0.004 -7.576,-1.527 -8.221,-3.448 -0.654,-1.95 2.039,-3.582 6.054,-3.623 4.052,-0.035 7.814,1.563 8.367,3.547 m 115.088,-14.708 c -1.484,-1.195 -0.404,-2.845 2.449,-3.698 2.888,-0.857 6.465,-0.562 7.95,0.668 1.481,1.217 0.304,2.88 -2.581,3.705 -2.857,0.815 -6.334,0.506 -7.818,-0.675 m 65.62,-34.824 c -1.736,0.933 -4.371,1.202 -5.903,0.609 -1.529,-0.596 -1.391,-1.838 0.324,-2.783 1.732,-0.953 4.406,-1.245 5.954,-0.632 1.548,0.606 1.373,1.863 -0.375,2.806 m -168.186,50.738 c -0.846,-1.809 1.526,-3.487 5.342,-3.727 3.85,-0.244 7.63,1.076 8.395,2.924 0.751,1.826 -1.728,3.449 -5.502,3.656 -3.736,0.2 -7.402,-1.068 -8.235,-2.853 m 52.778,-3.779 c -1.192,-1.527 0.534,-3.238 3.924,-3.827 3.424,-0.592 7.178,0.201 8.347,1.762 1.156,1.548 -0.694,3.246 -4.083,3.799 -3.352,0.547 -6.999,-0.226 -8.188,-1.734 m 79.857,-21.269 c -2.538,0.903 -5.842,0.825 -7.405,-0.179 -1.574,-1.01 -0.824,-2.576 1.702,-3.509 2.553,-0.94 5.935,-0.878 7.516,0.16 1.578,1.027 0.75,2.609 -1.813,3.528 m -13.631,-27.069 c -2.118,-0.961 -1.921,-2.816 0.474,-4.154 2.425,-1.354 6.159,-1.659 8.313,-0.675 2.145,0.993 1.87,2.87 -0.589,4.198 -2.43,1.309 -6.086,1.59 -8.198,0.631 m -86.01,39.166 c -3.531,0.762 -7.685,-0.014 -9.338,-1.734 -1.661,-1.745 -0.18,-3.816 3.376,-4.636 3.607,-0.826 7.909,-0.039 9.547,1.759 1.628,1.774 -0.008,3.838 -3.585,4.611 m 19.4,-12.139 c 3.371,-1.005 7.621,-0.503 9.442,1.122 1.801,1.617 0.496,3.684 -2.868,4.641 -3.322,0.934 -7.434,0.434 -9.249,-1.122 -1.818,-1.577 -0.654,-3.65 2.675,-4.641 m 55.708,-18.58 c 2.091,1.21 1.462,3.216 -1.353,4.457 -2.779,1.224 -6.669,1.253 -8.73,0.079 -2.068,-1.181 -1.547,-3.159 1.207,-4.421 2.789,-1.278 6.784,-1.339 8.876,-0.115 m 36.013,-24.838 c -2.019,1.334 -5.33,1.817 -7.416,1.1 -2.087,-0.728 -2.187,-2.396 -0.207,-3.748 2.009,-1.364 5.373,-1.889 7.498,-1.148 2.124,0.741 2.167,2.443 0.125,3.796 m 13.492,-34.879 c -1.674,-0.259 -2.175,-1.366 -1.122,-2.49 1.069,-1.126 3.31,-1.837 5.005,-1.575 1.7,0.267 2.199,1.4 1.104,2.518 -1.076,1.126 -3.313,1.807 -4.987,1.547 m 0.788,-19.209 c -1.25,-0.078 -1.771,-0.829 -1.164,-1.674 0.604,-0.852 2.123,-1.469 3.386,-1.395 1.264,0.085 1.791,0.848 1.159,1.69 -0.613,0.848 -2.131,1.46 -3.381,1.379 M 379.659,404.735 c 1.239,2.075 -1.005,4.036 -4.949,4.408 -3.898,0.363 -8.076,-0.96 -9.389,-2.983 -1.328,-2.051 0.764,-4.068 4.738,-4.488 4.021,-0.421 8.341,0.961 9.6,3.063 m 172.504,-74.779 c -1.564,1.273 -4.399,1.912 -6.347,1.43 -1.95,-0.487 -2.296,-1.906 -0.768,-3.193 1.546,-1.295 4.414,-1.963 6.394,-1.469 1.983,0.491 2.291,1.935 0.721,3.232 m -155.423,70.34 c 3.819,-0.632 8.131,0.454 9.588,2.403 1.43,1.934 -0.508,3.952 -4.275,4.53 -3.72,0.569 -7.888,-0.479 -9.373,-2.352 -1.496,-1.9 0.29,-3.955 4.06,-4.581 M 547.287,274.974 c -0.679,0.014 -1.031,-0.344 -0.808,-0.811 0.229,-0.467 0.973,-0.851 1.659,-0.873 0.68,-0.013 1.045,0.351 0.807,0.814 -0.242,0.466 -0.978,0.845 -1.658,0.87 M 479.58,388.013 c -3.071,1.096 -7.109,0.866 -9.059,-0.513 -1.963,-1.391 -1.116,-3.435 1.944,-4.577 3.104,-1.155 7.264,-0.944 9.239,0.492 1.968,1.42 0.991,3.482 -2.124,4.598 m -83.796,6.605 c -3.555,0.983 -8.129,0.245 -10.289,-1.647 -2.182,-1.917 -1.116,-4.325 2.447,-5.382 3.62,-1.069 8.368,-0.321 10.542,1.664 2.145,1.971 0.908,4.365 -2.7,5.365 m -33.956,-2.912 c 3.829,-0.846 8.609,0.222 10.597,2.378 1.964,2.129 0.424,4.469 -3.369,5.247 -3.741,0.763 -8.334,-0.274 -10.337,-2.327 -2.024,-2.084 -0.665,-4.456 3.109,-5.298 m 127.487,-41.34 c -2.51,1.693 -6.67,2.171 -9.331,1.1 -2.659,-1.083 -2.859,-3.329 -0.41,-5.062 2.492,-1.748 6.748,-2.287 9.469,-1.172 2.716,1.114 2.82,3.418 0.272,5.134 m -41.844,21.951 c 2.496,1.59 1.904,4.032 -1.263,5.44 -3.117,1.386 -7.595,1.259 -10.061,-0.269 -2.475,-1.543 -2.031,-3.949 1.054,-5.399 3.134,-1.468 7.757,-1.371 10.27,0.228 m 58.677,-39.527 c -2.127,1.762 -5.977,2.519 -8.638,1.71 -2.66,-0.812 -3.167,-2.903 -1.104,-4.69 2.093,-1.806 6.012,-2.619 8.736,-1.786 2.723,0.831 3.163,2.982 1.006,4.766 m -8.259,-101.083 c -0.724,0.124 -1.248,-0.214 -1.184,-0.758 0.068,-0.544 0.713,-1.095 1.444,-1.215 0.724,-0.132 1.244,0.215 1.184,0.764 -0.075,0.543 -0.718,1.089 -1.444,1.209 m 20.503,62.454 c -2.319,-0.277 -3.254,-1.804 -2.1,-3.45 1.187,-1.649 4.049,-2.785 6.416,-2.525 2.37,0.276 3.294,1.847 2.072,3.505 -1.206,1.641 -4.065,2.742 -6.388,2.47 m -96.773,93.305 c -3.35,1.195 -7.893,0.759 -10.21,-0.961 -2.339,-1.735 -1.575,-4.162 1.762,-5.424 3.392,-1.278 8.101,-0.86 10.447,0.949 2.327,1.792 1.403,4.225 -1.999,5.436 m 95.125,-78.678 c 2.614,0.553 3.331,2.439 1.638,4.225 -1.685,1.752 -5.105,2.727 -7.661,2.194 -2.56,-0.54 -3.319,-2.387 -1.7,-4.155 1.648,-1.784 5.108,-2.803 7.723,-2.264 m -57.19,51.746 c 2.838,-1.63 7.317,-1.853 9.965,-0.486 2.63,1.365 2.382,3.766 -0.5,5.348 -2.84,1.564 -7.198,1.736 -9.785,0.426 -2.591,-1.324 -2.472,-3.68 0.32,-5.288 m 53.069,-109.596 c -1.386,0.104 -2.259,-0.651 -1.922,-1.67 0.32,-1.031 1.731,-1.948 3.134,-2.054 1.408,-0.106 2.275,0.653 1.929,1.685 -0.337,1.028 -1.746,1.939 -3.141,2.039 m 6.716,21.358 c -1.931,-0.054 -2.922,-1.203 -2.209,-2.6 0.712,-1.407 2.888,-2.512 4.849,-2.478 1.966,0.039 2.946,1.218 2.206,2.635 -0.745,1.397 -2.911,2.485 -4.846,2.443 m -89.136,85.471 c -2.709,1.868 -7.371,2.22 -10.465,0.824 -3.1,-1.415 -3.523,-4.083 -0.895,-6.012 2.681,-1.956 7.475,-2.38 10.656,-0.912 3.17,1.46 3.459,4.2 0.704,6.1 m 19.128,-16.184 c -2.392,2.044 -6.868,2.755 -10.046,1.615 -3.184,-1.147 -3.935,-3.744 -1.634,-5.829 2.339,-2.126 6.925,-2.908 10.197,-1.721 3.264,1.187 3.906,3.85 1.483,5.935 m -51.701,23.429 c 2.974,-1.754 7.904,-1.807 10.947,-0.095 3.03,1.699 2.968,4.454 -0.061,6.142 -2.984,1.65 -7.752,1.661 -10.72,0.032 -2.983,-1.645 -3.087,-4.353 -0.166,-6.079 m 67.07,-65.92 c 1.529,-2.257 5.361,-3.664 8.568,-3.127 3.209,0.553 4.493,2.848 2.891,5.103 -1.589,2.221 -5.387,3.56 -8.511,3.022 -3.121,-0.545 -4.443,-2.765 -2.948,-4.998 m -12.659,-87.823 c -1.412,0.322 -2.58,-0.324 -2.627,-1.471 -0.041,-1.153 1.074,-2.361 2.495,-2.709 1.432,-0.342 2.631,0.326 2.643,1.489 0.052,1.153 -1.1,2.356 -2.511,2.691 m -90.525,172.03 c 2.683,2.097 1.979,4.772 -1.497,5.984 -3.418,1.187 -8.293,0.523 -10.968,-1.488 -2.698,-2.033 -2.191,-4.713 1.214,-5.987 3.463,-1.295 8.534,-0.626 11.251,1.491 m 24.239,-7.873 c 2.859,1.913 2.471,4.643 -0.798,6.094 -3.214,1.425 -8.051,1.092 -10.873,-0.739 -2.844,-1.849 -2.636,-4.552 0.54,-6.063 3.229,-1.531 8.244,-1.219 11.131,0.708 M 429.694,193.23 c -0.699,0.245 -1.353,-0.02 -1.492,-0.606 -0.135,-0.582 0.337,-1.265 1.033,-1.525 0.703,-0.247 1.367,0.018 1.498,0.607 0.115,0.593 -0.34,1.273 -1.039,1.524 m 35.314,129.354 c -2.012,2.176 -6.215,3.221 -9.414,2.368 -3.2,-0.853 -4.257,-3.301 -2.335,-5.501 1.954,-2.231 6.224,-3.353 9.515,-2.48 3.29,0.878 4.278,3.405 2.234,5.613 m 9.288,-41.436 c -2.913,-0.226 -4.426,-2.147 -3.384,-4.306 1.063,-2.187 4.35,-3.796 7.335,-3.573 2.991,0.232 4.495,2.204 3.361,4.396 -1.122,2.165 -4.389,3.722 -7.312,3.483 m -7.191,-47.967 c -2.049,0.255 -3.53,-0.844 -3.305,-2.462 0.227,-1.63 2.087,-3.167 4.166,-3.439 2.092,-0.257 3.595,0.86 3.326,2.498 -0.249,1.635 -2.129,3.155 -4.187,3.403 m 7.302,23.877 c -2.557,0.051 -4.138,-1.486 -3.532,-3.444 0.612,-1.978 3.223,-3.646 5.834,-3.708 2.62,-0.058 4.209,1.517 3.543,3.505 -0.661,1.972 -3.274,3.593 -5.845,3.647 m -98.179,-77.52 c -1.278,0.578 -2.662,0.098 -3.103,-1.08 -0.449,-1.184 0.226,-2.64 1.515,-3.227 1.286,-0.602 2.69,-0.108 3.127,1.09 0.436,1.194 -0.256,2.631 -1.539,3.217 m 22.755,20.334 c -1.966,0.604 -3.828,-0.309 -4.193,-2.036 -0.35,-1.744 0.961,-3.659 2.952,-4.29 2,-0.628 3.898,0.307 4.236,2.072 0.329,1.755 -1.015,3.658 -2.995,4.254 m -9.638,154.793 c -2.408,2.114 -7.186,2.65 -10.727,1.22 -3.555,-1.435 -4.61,-4.336 -2.315,-6.519 2.343,-2.22 7.253,-2.835 10.915,-1.334 3.646,1.497 4.57,4.474 2.127,6.633 m 35.843,-79.574 c -3.397,-0.153 -5.562,-2.348 -4.847,-4.953 0.728,-2.64 4.147,-4.699 7.638,-4.572 3.505,0.133 5.688,2.427 4.853,5.081 -0.802,2.624 -4.236,4.586 -7.644,4.444 M 348.143,164.783 c -0.587,0.376 -1.345,0.225 -1.651,-0.36 -0.334,-0.573 -0.111,-1.357 0.481,-1.739 0.588,-0.384 1.33,-0.217 1.655,0.362 0.32,0.585 0.102,1.359 -0.485,1.737 m 58.344,173.036 c -2.082,2.333 -6.67,3.264 -10.299,2.111 -3.632,-1.159 -5.019,-3.992 -3.056,-6.377 1.999,-2.423 6.685,-3.446 10.437,-2.248 3.744,1.204 5.032,4.131 2.918,6.514 m 9.955,-26.076 c 3.773,0.867 5.414,3.683 3.683,6.236 -1.704,2.511 -6.022,3.839 -9.675,2.992 -3.654,-0.84 -5.35,-3.549 -3.773,-6.087 1.618,-2.579 5.991,-4.008 9.765,-3.141 m -1.486,-87.866 c -2.585,0.445 -4.747,-0.924 -4.833,-3.094 -0.09,-2.185 1.95,-4.354 4.579,-4.84 2.646,-0.474 4.835,0.938 4.882,3.154 0.047,2.194 -2.031,4.333 -4.628,4.78 m 14.882,20.852 c -0.353,2.481 -3.15,4.63 -6.23,4.809 -3.064,0.19 -5.305,-1.639 -5.029,-4.096 0.295,-2.487 3.057,-4.699 6.195,-4.91 3.152,-0.211 5.413,1.679 5.064,4.197 m -72.902,117.563 c 2.648,-1.984 7.705,-2.191 11.237,-0.436 3.507,1.75 4.079,4.724 1.346,6.636 -2.686,1.869 -7.584,2.016 -11.004,0.349 -3.438,-1.682 -4.172,-4.596 -1.579,-6.549 m -21.337,10.119 c 2.919,-1.731 8.08,-1.551 11.459,0.433 3.349,1.965 3.584,4.899 0.601,6.55 -2.93,1.614 -7.908,1.393 -11.193,-0.482 -3.306,-1.896 -3.727,-4.793 -0.867,-6.501 m 84.864,-73.214 c -3.585,-0.501 -5.548,-2.996 -4.395,-5.621 1.182,-2.664 5.139,-4.447 8.837,-3.943 3.705,0.507 5.655,3.106 4.358,5.764 -1.276,2.615 -5.207,4.304 -8.8,3.8 m -44.648,-22.812 c -3.727,-0.037 -6.549,-2.406 -6.319,-5.33 0.24,-2.968 3.525,-5.397 7.363,-5.388 3.863,0.01 6.708,2.488 6.371,5.486 -0.348,2.948 -3.667,5.266 -7.415,5.232 m -54.876,-99.638 c -1.676,0.926 -3.751,0.324 -4.66,-1.371 -0.911,-1.707 -0.312,-3.874 1.369,-4.835 1.682,-0.981 3.802,-0.344 4.713,1.386 0.9,1.723 0.25,3.873 -1.422,4.82 m -60.291,-26.624 c -0.474,-0.518 -0.524,-1.318 -0.112,-1.799 0.41,-0.48 1.141,-0.444 1.618,0.076 0.48,0.516 0.521,1.32 0.109,1.796 -0.415,0.474 -1.138,0.443 -1.615,-0.073 m 10.109,236.178 c -0.469,-0.215 -0.903,-0.446 -1.305,-0.69 -2.033,0.535 -4.805,0.374 -7.464,-0.567 -0.5,-0.178 -0.973,-0.377 -1.421,-0.59 -1.696,0.749 -4.29,0.848 -7.025,0.127 -0.514,-0.136 -1.009,-0.296 -1.486,-0.475 -1.31,0.939 -3.646,1.289 -6.366,0.806 -0.509,-0.091 -1.009,-0.209 -1.498,-0.348 -0.894,1.095 -2.903,1.679 -5.521,1.438 -0.489,-0.045 -0.979,-0.119 -1.464,-0.216 -0.465,1.211 -2.097,2.001 -4.534,2.001 -0.455,0 -0.919,-0.031 -1.386,-0.084 -0.041,1.288 -1.263,2.255 -3.455,2.483 -0.409,0.042 -0.835,0.052 -1.271,0.041 0.366,1.327 -0.429,2.435 -2.327,2.871 -0.353,0.081 -0.731,0.131 -1.124,0.159 0.737,1.328 0.367,2.537 -1.196,3.159 -0.291,0.115 -0.614,0.201 -0.956,0.266 1.069,1.296 1.114,2.573 -0.093,3.352 -0.225,0.144 -0.487,0.261 -0.773,0.359 1.355,1.234 1.79,2.542 0.952,3.451 -0.156,0.168 -0.352,0.313 -0.577,0.439 1.593,1.149 2.387,2.455 1.916,3.463 -0.088,0.187 -0.218,0.354 -0.381,0.503 1.782,1.043 2.899,2.321 2.79,3.4 -0.021,0.201 -0.085,0.384 -0.185,0.552 1.925,0.924 3.326,2.147 3.563,3.272 0.044,0.208 0.042,0.403 0.005,0.585 2.019,0.791 3.663,1.938 4.23,3.081 0.104,0.212 0.164,0.414 0.187,0.605 2.071,0.65 3.918,1.701 4.789,2.842 0.162,0.213 0.28,0.418 0.361,0.615 2.082,0.505 4.089,1.444 5.242,2.558 0.215,0.208 0.387,0.411 0.523,0.61 2.056,0.354 4.184,1.165 5.591,2.235 0.262,0.2 0.485,0.399 0.673,0.596 1.993,0.203 4.2,0.879 5.831,1.884 0.304,0.187 0.571,0.378 0.806,0.568 1.898,0.051 4.148,0.583 5.977,1.505 0.342,0.174 0.651,0.352 0.929,0.534 1.77,-0.099 4.022,0.278 6.014,1.102 0.372,0.154 0.714,0.317 1.03,0.485 1.613,-0.246 3.832,-0.027 5.956,0.684 0.397,0.133 0.769,0.277 1.118,0.43 1.426,-0.391 3.572,-0.338 5.793,0.246 0.417,0.109 0.814,0.232 1.192,0.365 1.209,-0.526 3.241,-0.64 5.521,-0.201 0.427,0.083 0.841,0.182 1.241,0.293 0.967,-0.657 2.846,-0.942 5.146,-0.657 0.432,0.053 0.858,0.125 1.274,0.212 0.698,-0.776 2.384,-1.231 4.661,-1.116 0.428,0.023 0.855,0.066 1.278,0.125 0.404,-0.887 1.857,-1.509 4.063,-1.569 0.416,-0.011 0.838,-10e-4 1.263,0.027 0.091,-0.978 1.271,-1.76 3.357,-2.008 0.393,-0.046 0.801,-0.066 1.216,-0.071 -0.244,-1.055 0.622,-1.99 2.539,-2.428 0.362,-0.082 0.747,-0.138 1.143,-0.178 -0.589,-1.109 -0.073,-2.181 1.618,-2.808 0.32,-0.118 0.67,-0.211 1.038,-0.288 -0.94,-1.137 -0.807,-2.327 0.607,-3.143 0.267,-0.153 0.573,-0.283 0.901,-0.396 -1.288,-1.135 -1.561,-2.42 -0.48,-3.414 0.205,-0.188 0.453,-0.355 0.73,-0.505 -1.618,-1.101 -2.311,-2.447 -1.61,-3.602 0.134,-0.218 0.315,-0.419 0.532,-0.603 -1.927,-1.033 -3.047,-2.408 -2.762,-3.701 0.055,-0.245 0.161,-0.475 0.307,-0.692 -2.193,-0.926 -3.726,-2.289 -3.889,-3.688 -0.03,-0.266 -0.006,-0.521 0.062,-0.764 -2.406,-0.786 -4.325,-2.093 -4.947,-3.563 -0.118,-0.28 -0.179,-0.552 -0.197,-0.815 -2.552,-0.611 -4.809,-1.818 -5.888,-3.314 -0.204,-0.284 -0.353,-0.566 -0.457,-0.844 -2.621,-0.406 -5.156,-1.469 -6.669,-2.945 -0.286,-0.281 -0.52,-0.565 -0.71,-0.847 -2.603,-0.181 -5.336,-1.058 -7.241,-2.466 -0.36,-0.267 -0.672,-0.542 -0.942,-0.821 -2.497,0.058 -5.338,-0.601 -7.573,-1.894 -0.422,-0.244 -0.8,-0.501 -1.142,-0.766 -2.303,0.301 -5.159,-0.118 -7.65,-1.252 m 9.831,-5.418 c 2.799,-0.399 6.357,0.263 9.042,1.856 0.793,0.473 1.431,0.986 1.925,1.513 3.03,-0.096 6.495,0.854 8.751,2.587 0.664,0.51 1.153,1.042 1.493,1.574 3.15,0.2 6.405,1.412 8.161,3.218 0.516,0.532 0.846,1.067 1.021,1.588 3.155,0.478 6.084,1.889 7.292,3.706 0.352,0.533 0.515,1.054 0.527,1.546 3.052,0.724 5.568,2.28 6.208,4.046 0.186,0.518 0.184,1.007 0.038,1.458 2.852,0.931 4.892,2.571 4.971,4.233 0.02,0.487 -0.137,0.931 -0.429,1.328 2.573,1.094 4.099,2.759 3.646,4.275 -0.133,0.443 -0.434,0.833 -0.854,1.168 2.232,1.21 3.229,2.846 2.294,4.182 -0.276,0.391 -0.701,0.719 -1.231,0.988 1.855,1.281 2.331,2.845 0.968,3.976 -0.4,0.331 -0.932,0.594 -1.549,0.795 1.45,1.309 1.427,2.762 -0.297,3.676 -0.505,0.267 -1.129,0.454 -1.81,0.587 1.043,1.303 0.558,2.619 -1.464,3.311 -0.593,0.203 -1.28,0.323 -2.007,0.391 0.633,1.261 -0.272,2.412 -2.526,2.884 -0.661,0.137 -1.391,0.193 -2.145,0.197 0.236,1.192 -1.045,2.167 -3.467,2.422 -0.71,0.074 -1.466,0.069 -2.229,0.015 -0.142,1.099 -1.747,1.885 -4.281,1.934 -0.746,0.013 -1.513,-0.043 -2.272,-0.15 -0.501,0.987 -2.382,1.579 -4.968,1.428 -0.764,-0.044 -1.528,-0.153 -2.268,-0.308 -0.827,0.86 -2.935,1.256 -5.533,0.924 -0.768,-0.098 -1.516,-0.255 -2.225,-0.453 -1.125,0.722 -3.417,0.925 -5.981,0.427 -0.76,-0.149 -1.481,-0.35 -2.148,-0.585 -1.392,0.577 -3.824,0.589 -6.318,-0.065 -0.742,-0.196 -1.426,-0.436 -2.044,-0.704 -1.631,0.423 -4.159,0.252 -6.541,-0.542 -0.712,-0.238 -1.35,-0.513 -1.909,-0.808 -1.839,0.263 -4.423,-0.092 -6.663,-1.007 -0.67,-0.275 -1.251,-0.578 -1.743,-0.895 -2.016,0.099 -4.622,-0.432 -6.686,-1.457 -0.618,-0.308 -1.133,-0.635 -1.551,-0.968 -2.163,-0.069 -4.747,-0.768 -6.604,-1.886 -0.558,-0.336 -0.999,-0.683 -1.335,-1.025 -2.279,-0.239 -4.804,-1.1 -6.423,-2.295 -0.486,-0.36 -0.844,-0.719 -1.091,-1.067 -2.358,-0.41 -4.782,-1.424 -6.131,-2.675 -0.405,-0.377 -0.672,-0.744 -0.825,-1.089 -2.401,-0.583 -4.681,-1.74 -5.73,-3.029 -0.314,-0.386 -0.484,-0.752 -0.537,-1.088 -2.404,-0.753 -4.493,-2.04 -5.209,-3.344 -0.213,-0.392 -0.278,-0.751 -0.226,-1.072 -2.363,-0.92 -4.213,-2.318 -4.566,-3.613 -0.104,-0.388 -0.058,-0.733 0.103,-1.032 -2.272,-1.08 -3.833,-2.567 -3.795,-3.825 0.013,-0.377 0.176,-0.699 0.449,-0.967 -2.128,-1.23 -3.347,-2.782 -2.893,-3.972 0.137,-0.356 0.421,-0.645 0.807,-0.873 -1.927,-1.365 -2.757,-2.953 -1.87,-4.04 0.267,-0.325 0.671,-0.573 1.168,-0.753 -1.662,-1.478 -2.052,-3.065 -0.723,-4.012 0.4,-0.284 0.924,-0.48 1.528,-0.602 -1.34,-1.567 -1.247,-3.115 0.52,-3.885 0.53,-0.23 1.177,-0.354 1.876,-0.411 -0.961,-1.624 -0.356,-3.091 1.837,-3.648 0.654,-0.166 1.401,-0.219 2.183,-0.204 -0.518,-1.638 0.624,-2.971 3.199,-3.278 0.769,-0.092 1.597,-0.078 2.445,0.015 -0.02,-1.6 1.658,-2.743 4.551,-2.774 0.864,-0.007 1.759,0.09 2.648,0.265 0.5,-1.517 2.69,-2.428 5.829,-2.161 0.935,0.081 1.868,0.263 2.769,0.519 1.034,-1.379 3.689,-2.015 6.975,-1.442 0.976,0.172 1.917,0.439 2.798,0.771 1.556,-1.193 4.603,-1.521 7.92,-0.647 0.985,0.261 1.899,0.607 2.728,1.008 2.042,-0.96 5.38,-0.959 8.607,0.195 0.955,0.343 1.808,0.759 2.553,1.217 2.463,-0.691 5.976,-0.354 8.99,1.043 0.889,0.414 1.646,0.885 2.277,1.385 M 372.04,250.32 c -3.405,0.333 -6.313,-1.658 -6.511,-4.488 -0.192,-2.873 2.449,-5.521 5.935,-5.914 3.514,-0.378 6.459,1.7 6.587,4.613 0.11,2.872 -2.591,5.443 -6.011,5.789 m -10.455,-26.474 c -2.938,0.659 -5.755,-0.89 -6.33,-3.481 -0.578,-2.629 1.362,-5.35 4.353,-6.055 3.013,-0.722 5.9,0.891 6.418,3.566 0.515,2.64 -1.485,5.301 -4.441,5.97 M 344.34,198.662 c -2.336,0.882 -4.88,-0.197 -5.712,-2.401 -0.826,-2.229 0.401,-4.782 2.768,-5.713 2.386,-0.923 4.999,0.173 5.794,2.45 0.798,2.247 -0.49,4.777 -2.85,5.664 m 5.433,157.532 c -1.98,2.285 -6.705,2.967 -10.603,1.565 -3.907,-1.414 -5.613,-4.423 -3.768,-6.774 1.891,-2.392 6.726,-3.174 10.769,-1.704 4.027,1.473 5.618,4.576 3.602,6.913 m 10.273,-23.788 c 4.116,1.168 6.071,4.238 4.407,6.823 -1.632,2.537 -6.154,3.647 -10.127,2.528 -3.976,-1.119 -6.007,-4.079 -4.517,-6.661 1.527,-2.625 6.118,-3.851 10.237,-2.69 m 13.49,-31.62 c -3.914,-0.429 -6.54,-3.076 -5.867,-5.969 0.69,-2.941 4.524,-5.017 8.568,-4.603 4.059,0.429 6.683,3.194 5.867,6.141 -0.807,2.894 -4.641,4.855 -8.568,4.431 m -7.471,21.932 c -3.987,-0.796 -6.331,-3.635 -5.237,-6.405 1.127,-2.816 5.387,-4.48 9.517,-3.676 4.134,0.816 6.441,3.777 5.185,6.581 -1.245,2.744 -5.472,4.289 -9.465,3.5 M 289.603,159.521 c -0.792,-1.111 -0.637,-2.664 0.36,-3.479 0.998,-0.822 2.471,-0.571 3.262,0.555 0.789,1.12 0.61,2.669 -0.385,3.479 -0.998,0.799 -2.445,0.553 -3.237,-0.555 M 321.31,370.76 c -3.808,-1.659 -5.182,-4.678 -3.02,-6.781 2.211,-2.138 7.229,-2.488 11.155,-0.751 3.904,1.733 5.133,4.824 2.807,6.886 -2.284,2.016 -7.153,2.293 -10.942,0.646 m 4.607,-41.144 c -4.191,-0.713 -7.136,-3.579 -6.574,-6.456 0.578,-2.93 4.563,-4.76 8.91,-4.038 4.359,0.731 7.292,3.726 6.567,6.647 -0.719,2.862 -4.7,4.557 -8.903,3.847 m 4.61,-45.266 c -3.902,0.069 -7.305,-2.339 -7.635,-5.432 -0.331,-3.147 2.635,-5.831 6.658,-5.936 4.047,-0.111 7.519,2.423 7.732,5.607 0.207,3.13 -2.828,5.689 -6.755,5.761 m 0.239,23.878 c -4.101,-0.338 -7.313,-3.019 -7.193,-6.045 0.124,-3.084 3.656,-5.364 7.897,-5.045 4.264,0.326 7.509,3.137 7.244,6.236 -0.268,3.038 -3.829,5.188 -7.948,4.854 m -6.281,-49.527 c -3.574,0.478 -7.05,-1.572 -7.81,-4.616 -0.77,-3.093 1.546,-6.065 5.211,-6.601 3.689,-0.537 7.257,1.608 7.936,4.756 0.669,3.102 -1.736,5.985 -5.337,6.461 m -30.85,-51.651 c -2.526,1.108 -5.656,-0.004 -7.025,-2.535 -1.39,-2.553 -0.467,-5.6 2.079,-6.786 2.575,-1.188 5.779,-0.028 7.143,2.587 1.34,2.594 0.342,5.588 -2.197,6.734 m 18.545,25.363 c -3.111,0.844 -6.506,-0.762 -7.63,-3.621 -1.134,-2.901 0.474,-6.013 3.638,-6.925 3.19,-0.925 6.685,0.758 7.762,3.724 1.065,2.927 -0.64,5.961 -3.77,6.822 M 180.55,150.691 c -0.561,-0.416 -0.845,-1.181 -0.624,-1.703 0.205,-0.532 0.845,-0.619 1.406,-0.202 0.566,0.414 0.836,1.182 0.623,1.707 -0.223,0.519 -0.848,0.614 -1.405,0.198 m 89.012,33.777 c -1.86,1.255 -4.534,0.595 -5.987,-1.473 -1.467,-2.079 -1.157,-4.829 0.714,-6.127 1.886,-1.31 4.61,-0.642 6.074,1.488 1.437,2.121 1.082,4.851 -0.801,6.112 m 51.07,153.994 c 4.36,1.087 6.936,4.184 5.788,6.872 -1.136,2.627 -5.434,3.871 -9.636,2.824 -4.202,-1.053 -6.828,-4.023 -5.856,-6.693 0.993,-2.723 5.345,-4.091 9.704,-3.003 M 236.849,165.987 c -1.347,-1.522 -1.467,-3.741 -0.276,-4.973 1.214,-1.231 3.296,-0.975 4.648,0.578 1.339,1.548 1.435,3.768 0.222,4.972 -1.207,1.194 -3.254,0.936 -4.594,-0.577 m -28.436,-11.053 c -1.028,-0.943 -1.37,-2.481 -0.734,-3.431 0.643,-0.954 1.98,-0.96 3.023,-0.011 1.027,0.955 1.335,2.484 0.712,3.441 -0.64,0.934 -1.974,0.943 -3.001,0.001 m 100.934,200.029 c 4.295,1.403 6.504,4.527 4.973,6.945 -1.504,2.365 -6.047,3.168 -10.191,1.829 -4.15,-1.344 -6.446,-4.361 -5.099,-6.791 1.378,-2.476 6.01,-3.383 10.317,-1.983 m -39.799,14.244 c -1.219,1.57 -4.213,2.259 -7.631,1.583 -2.713,-0.54 -5.095,-1.82 -6.494,-3.336 -0.613,1.747 -3.131,2.759 -6.467,2.405 -2.638,-0.283 -5.205,-1.361 -6.951,-2.78 -0.006,1.858 -1.969,3.151 -5.097,3.123 -2.47,-0.027 -5.117,-0.875 -7.129,-2.152 0.573,1.901 -0.787,3.422 -3.605,3.702 -2.22,0.217 -4.847,-0.388 -7.037,-1.491 1.098,1.881 0.353,3.568 -2.073,4.132 -1.908,0.437 -4.427,0.079 -6.707,-0.83 1.549,1.808 1.406,3.599 -0.573,4.405 -1.556,0.632 -3.892,0.51 -6.181,-0.195 1.915,1.688 2.335,3.52 0.832,4.532 -1.181,0.788 -3.275,0.885 -5.501,0.386 2.194,1.532 3.122,3.358 2.105,4.526 -0.802,0.911 -2.614,1.204 -4.719,0.905 2.39,1.352 3.758,3.123 3.216,4.403 -0.429,1.003 -1.932,1.466 -3.871,1.352 2.506,1.158 4.244,2.836 4.158,4.188 -0.074,1.06 -1.257,1.666 -2.993,1.724 2.554,0.956 4.596,2.512 4.927,3.899 0.257,1.089 -0.601,1.811 -2.114,2.021 2.54,0.753 4.814,2.166 5.53,3.554 0.562,1.098 0.014,1.912 -1.271,2.255 2.482,0.548 4.938,1.797 6.002,3.165 0.837,1.079 0.598,1.961 -0.441,2.42 2.373,0.356 4.942,1.433 6.311,2.751 1.08,1.041 1.139,1.97 0.356,2.529 2.227,0.171 4.855,1.069 6.489,2.317 1.291,0.989 1.629,1.944 1.099,2.585 2.055,-0.005 4.7,0.711 6.563,1.873 1.473,0.923 2.076,1.886 1.797,2.593 1.854,-0.169 4.471,0.363 6.526,1.423 1.627,0.844 2.479,1.8 2.448,2.558 1.634,-0.323 4.185,0.025 6.395,0.97 1.754,0.754 2.839,1.686 3.054,2.482 1.393,-0.466 3.841,-0.301 6.173,0.517 1.856,0.653 3.154,1.548 3.606,2.369 1.137,-0.598 3.449,-0.615 5.868,0.066 1.92,0.54 3.409,1.378 4.099,2.205 0.867,-0.714 3.023,-0.9 5.491,-0.371 1.968,0.425 3.632,1.197 4.547,2.018 0.578,-0.824 2.535,-1.19 5.022,-0.817 1.988,0.299 3.808,0.992 4.94,1.795 0.274,-0.921 1.997,-1.46 4.47,-1.256 1.979,0.165 3.932,0.764 5.272,1.534 -0.047,-1.004 1.41,-1.714 3.827,-1.689 1.94,0.023 4.002,0.512 5.538,1.232 -0.38,-1.072 0.774,-1.945 3.093,-2.105 1.863,-0.128 4.005,0.235 5.722,0.887 -0.725,-1.12 0.09,-2.148 2.265,-2.502 1.75,-0.284 3.94,-0.063 5.82,0.504 -1.083,-1.15 -0.645,-2.319 1.336,-2.875 1.598,-0.445 3.797,-0.381 5.814,0.08 -1.445,-1.152 -1.42,-2.449 0.313,-3.209 1.398,-0.61 3.557,-0.721 5.68,-0.388 -1.799,-1.127 -2.216,-2.526 -0.793,-3.488 1.153,-0.774 3.222,-1.073 5.413,-0.888 -2.148,-1.068 -3.038,-2.545 -1.979,-3.701 0.859,-0.934 2.78,-1.432 4.989,-1.418 -2.472,-0.972 -3.853,-2.489 -3.215,-3.827 0.518,-1.079 2.223,-1.784 4.391,-1.961 -2.756,-0.834 -4.627,-2.35 -4.464,-3.846 0.132,-1.209 1.556,-2.119 3.616,-2.502 -2.984,-0.654 -5.334,-2.119 -5.688,-3.742 -0.284,-1.312 0.791,-2.419 2.669,-3.019 -3.137,-0.432 -5.926,-1.79 -6.827,-3.497 -0.724,-1.379 -0.06,-2.665 1.561,-3.482 -3.196,-0.17 -6.365,-1.365 -7.82,-3.104 -1.175,-1.411 -0.961,-2.853 0.346,-3.882 -3.153,0.13 -6.621,-0.829 -8.617,-2.546 -1.605,-1.386 -1.886,-2.939 -0.977,-4.16 -2.982,0.443 -6.627,-0.237 -9.107,-1.861 -1.985,-1.301 -2.778,-2.906 -2.334,-4.283 -2.688,0.754 -6.378,0.382 -9.26,-1.082 -2.306,-1.175 -3.584,-2.785 -3.62,-4.276 -2.285,1.061 -5.881,1.038 -9.07,-0.209 -2.543,-0.997 -4.265,-2.551 -4.785,-4.106 -1.786,1.339 -5.147,1.675 -8.517,0.696 -2.682,-0.782 -4.778,-2.224 -5.761,-3.788 m 9.223,-4.985 c 3.25,0.952 5.577,2.837 6.191,4.728 2.113,-1.616 6.352,-1.824 10.094,-0.341 3.062,1.219 4.86,3.204 4.884,5.018 2.706,-1.282 7.145,-1.044 10.512,0.705 2.749,1.432 3.952,3.441 3.388,5.116 3.178,-0.914 7.629,-0.261 10.491,1.672 2.329,1.578 2.903,3.53 1.796,5.009 3.511,-0.53 7.797,0.496 10.061,2.532 1.833,1.656 1.785,3.488 0.198,4.733 3.695,-0.159 7.659,1.17 9.271,3.223 1.299,1.668 0.667,3.323 -1.311,4.31 3.733,0.188 7.25,1.744 8.197,3.742 0.758,1.62 -0.397,3.06 -2.677,3.78 3.647,0.492 6.634,2.198 6.932,4.079 0.233,1.521 -1.365,2.722 -3.851,3.179 3.45,0.747 5.857,2.529 5.552,4.246 -0.251,1.386 -2.21,2.334 -4.811,2.543 3.168,0.953 4.977,2.746 4.131,4.263 -0.686,1.222 -2.922,1.917 -5.559,1.897 2.832,1.107 4.045,2.857 2.731,4.155 -1.063,1.042 -3.487,1.495 -6.087,1.274 2.446,1.213 3.089,2.878 1.379,3.937 -1.381,0.857 -3.928,1.076 -6.437,0.681 2.045,1.274 2.152,2.818 0.125,3.646 -1.644,0.666 -4.245,0.673 -6.619,0.129 1.636,1.302 1.255,2.701 -1.03,3.293 -1.849,0.481 -4.45,0.296 -6.652,-0.369 1.224,1.294 0.399,2.527 -2.076,2.895 -2.008,0.297 -4.561,-0.058 -6.563,-0.819 0.82,1.258 -0.404,2.313 -3.013,2.468 -2.121,0.126 -4.586,-0.383 -6.372,-1.219 0.43,1.201 -1.147,2.071 -3.843,2.022 -2.195,-0.042 -4.543,-0.682 -6.094,-1.571 0.054,1.124 -1.831,1.8 -4.571,1.559 -2.233,-0.195 -4.436,-0.95 -5.743,-1.876 -0.306,1.031 -2.458,1.511 -5.2,1.091 -2.238,-0.34 -4.277,-1.192 -5.333,-2.136 -0.65,0.917 -3.031,1.195 -5.736,0.611 -2.221,-0.481 -4.072,-1.416 -4.868,-2.364 -0.972,0.796 -3.542,0.879 -6.185,0.136 -2.171,-0.61 -3.812,-1.614 -4.342,-2.55 -1.279,0.663 -4.008,0.544 -6.554,-0.345 -2.097,-0.733 -3.509,-1.79 -3.766,-2.698 -1.567,0.515 -4.422,0.192 -6.839,-0.831 -1.995,-0.844 -3.157,-1.94 -3.138,-2.806 -1.838,0.356 -4.782,-0.171 -7.038,-1.317 -1.864,-0.95 -2.756,-2.067 -2.456,-2.874 -2.089,0.184 -5.086,-0.549 -7.146,-1.808 -1.707,-1.045 -2.298,-2.166 -1.707,-2.9 -2.323,0.002 -5.337,-0.937 -7.165,-2.297 -1.515,-1.128 -1.792,-2.235 -0.909,-2.876 -2.529,-0.194 -5.512,-1.339 -7.064,-2.78 -1.288,-1.198 -1.24,-2.271 -0.068,-2.801 -2.701,-0.409 -5.593,-1.753 -6.823,-3.256 -1.025,-1.25 -0.62,-2.266 0.84,-2.663 -2.837,-0.632 -5.579,-2.172 -6.448,-3.712 -0.72,-1.285 0.055,-2.212 1.789,-2.456 -2.924,-0.866 -5.452,-2.591 -5.905,-4.142 -0.379,-1.293 0.787,-2.105 2.788,-2.173 -2.955,-1.104 -5.192,-2.994 -5.189,-4.521 0.006,-1.276 1.569,-1.938 3.813,-1.808 -2.918,-1.345 -4.788,-3.372 -4.283,-4.836 0.424,-1.222 2.381,-1.699 4.831,-1.35 -2.799,-1.579 -4.208,-3.711 -3.165,-5.065 0.878,-1.125 3.209,-1.383 5.81,-0.799 -2.587,-1.8 -3.456,-3.991 -1.847,-5.18 1.343,-0.989 4.014,-0.991 6.704,-0.161 -2.272,-1.992 -2.511,-4.179 -0.338,-5.15 1.816,-0.805 4.772,-0.518 7.468,0.563 -1.861,-2.148 -1.409,-4.273 1.312,-4.968 2.266,-0.574 5.422,0.019 8.024,1.339 -1.335,-2.25 -0.143,-4.229 3.067,-4.598 2.664,-0.301 5.911,0.596 8.31,2.127 -0.706,-2.277 1.243,-4.025 4.848,-4.026 2.987,0.002 6.205,1.206 8.294,2.914 -0.016,-2.231 2.658,-3.675 6.538,-3.285 3.205,0.325 6.258,1.805 7.934,3.639 0.71,-2.103 4.038,-3.176 8.039,-2.394 3.298,0.649 6.05,2.361 7.226,4.258 1.435,-1.894 5.296,-2.546 9.253,-1.391 M 164.9,169.752 c -1.587,-1.238 -2.341,-3.352 -1.673,-4.711 0.668,-1.372 2.501,-1.454 4.105,-0.194 1.587,1.267 2.318,3.382 1.637,4.726 -0.676,1.339 -2.495,1.415 -4.069,0.179 m 86.061,53.39 c -2.549,1.296 -6.121,0.199 -8.025,-2.49 -1.928,-2.715 -1.445,-6.046 1.116,-7.434 2.591,-1.393 6.269,-0.247 8.181,2.546 1.892,2.764 1.295,6.055 -1.272,7.378 m 19.579,24.668 c -3.128,0.987 -6.973,-0.599 -8.637,-3.561 -1.681,-3.008 -0.513,-6.333 2.665,-7.399 3.212,-1.072 7.178,0.575 8.812,3.664 1.61,3.045 0.32,6.298 -2.84,7.296 m 17.12,100.69 c 4.484,0.994 7.589,4.015 6.947,6.705 -0.637,2.633 -4.639,3.948 -8.958,2.991 -4.314,-0.96 -7.434,-3.854 -6.967,-6.517 0.477,-2.72 4.496,-4.163 8.978,-3.179 M 192.794,181.904 c -1.889,-1.788 -2.431,-4.491 -1.206,-6.05 1.251,-1.558 3.804,-1.357 5.71,0.478 1.889,1.822 2.389,4.534 1.13,6.057 -1.25,1.506 -3.759,1.291 -5.634,-0.485 m 26.643,17.432 c -2.004,-2.301 -2.128,-5.439 -0.235,-6.988 1.901,-1.584 5.105,-0.925 7.121,1.433 1.986,2.349 2.026,5.457 0.117,6.973 -1.896,1.488 -5.016,0.858 -7.003,-1.418 m 69.384,66.941 c 1.208,3.179 -0.783,6.206 -4.415,6.8 -3.603,0.592 -7.533,-1.416 -8.838,-4.521 -1.32,-3.159 0.559,-6.284 4.245,-6.949 3.719,-0.66 7.769,1.446 9.008,4.67 m 4.007,63.802 c 4.456,0.637 7.912,3.561 7.713,6.492 -0.202,2.871 -3.847,4.646 -8.142,4.025 -4.279,-0.625 -7.703,-3.413 -7.67,-6.291 0.043,-2.934 3.659,-4.844 8.099,-4.226 m -0.413,-32.509 c -3.946,0.167 -7.816,-2.186 -8.686,-5.31 -0.883,-3.182 1.657,-5.977 5.721,-6.196 4.093,-0.22 8.063,2.262 8.831,5.492 0.747,3.172 -1.892,5.837 -5.866,6.014 M 137.883,163.771 c -1.121,-0.724 -1.822,-2.124 -1.58,-3.125 0.264,-1.007 1.372,-1.227 2.507,-0.494 1.126,0.735 1.822,2.137 1.565,3.136 -0.263,0.991 -1.377,1.213 -2.492,0.483 m -24.109,0.423 c -0.567,-0.306 -1.01,-0.971 -0.98,-1.499 0.027,-0.526 0.517,-0.706 1.095,-0.409 0.571,0.308 1.007,0.974 0.978,1.499 -0.035,0.525 -0.519,0.703 -1.093,0.409 m 181.112,156.088 c -4.166,-0.242 -7.849,-2.858 -8.269,-5.896 -0.418,-3.096 2.707,-5.475 7.016,-5.255 4.334,0.219 8.087,2.975 8.366,6.096 0.267,3.059 -2.927,5.296 -7.113,5.055 M 106.296,184.489 c -1.624,-0.923 -2.817,-2.788 -2.649,-4.166 0.158,-1.386 1.634,-1.751 3.276,-0.805 1.63,0.951 2.808,2.818 2.629,4.186 -0.198,1.356 -1.644,1.717 -3.256,0.785 m -42.307,2.477 c -0.522,-0.202 -1.046,-0.746 -1.163,-1.237 -0.111,-0.491 0.226,-0.745 0.751,-0.54 0.533,0.186 1.047,0.749 1.163,1.239 0.118,0.488 -0.219,0.723 -0.751,0.538 m 18.961,-3.99 c -1.086,-0.509 -2.026,-1.698 -2.096,-2.666 -0.069,-0.974 0.763,-1.347 1.863,-0.837 1.096,0.509 2.029,1.712 2.093,2.681 0.058,0.962 -0.774,1.325 -1.86,0.822 m 110.877,39.933 c -1.818,1.647 -5.247,1.08 -7.69,-1.27 -2.471,-2.368 -3.034,-5.678 -1.241,-7.408 1.827,-1.734 5.346,-1.17 7.834,1.281 2.47,2.42 2.932,5.731 1.097,7.397 m -27.666,-18.156 c -1.18,1.719 -4.006,1.569 -6.348,-0.325 -2.357,-1.914 -3.357,-4.901 -2.219,-6.683 1.171,-1.791 4.054,-1.661 6.442,0.311 2.37,1.956 3.305,4.953 2.125,6.697 m -28.809,-13.394 c -0.6,1.627 -2.753,1.788 -4.813,0.39 -2.059,-1.419 -3.272,-3.894 -2.699,-5.557 0.581,-1.676 2.767,-1.868 4.859,-0.419 2.084,1.445 3.267,3.95 2.653,5.586 m 103.129,69.007 c 2.084,3.03 1.232,6.339 -1.854,7.422 -3.049,1.077 -7.199,-0.424 -9.326,-3.361 -2.152,-2.981 -1.445,-6.36 1.645,-7.52 3.119,-1.175 7.414,0.391 9.535,3.459 m 26.787,75.132 c -4.139,-0.157 -8.172,-2.644 -9.056,-5.598 -0.894,-3.013 1.807,-5.392 6.08,-5.265 4.304,0.128 8.437,2.749 9.198,5.793 0.741,2.985 -2.057,5.233 -6.222,5.07 m 0.703,-27.184 c 1.228,3.107 -0.996,5.781 -4.921,6.035 -3.896,0.249 -8.097,-1.989 -9.439,-5.036 -1.36,-3.105 0.734,-5.9 4.737,-6.209 4.037,-0.303 8.363,2.05 9.623,5.21 m -1.276,46.089 c -4.278,-0.535 -8.065,-3.186 -8.489,-5.979 -0.428,-2.854 2.795,-4.779 7.231,-4.252 4.454,0.536 8.298,3.322 8.574,6.177 0.26,2.797 -3.02,4.588 -7.316,4.054 m -13.124,-62.912 c -3.536,0.668 -7.785,-1.234 -9.554,-4.284 -1.797,-3.101 -0.375,-6.242 3.23,-6.994 3.644,-0.746 8.037,1.248 9.763,4.424 1.692,3.129 0.13,6.18 -3.439,6.854 M 218.734,236.81 c 2.357,2.795 2.211,6.201 -0.285,7.631 -2.467,1.413 -6.339,0.376 -8.705,-2.324 -2.388,-2.735 -2.364,-6.172 0.1,-7.681 2.498,-1.521 6.498,-0.45 8.89,2.374 m 28.006,90.403 c 1.615,2.965 -0.22,5.577 -4.047,5.88 -3.791,0.297 -8.203,-1.776 -9.916,-4.68 -1.741,-2.957 -0.056,-5.676 3.829,-6.043 3.923,-0.36 8.484,1.826 10.134,4.843 m -22.142,-25.915 c 3.511,-0.798 8.12,1.053 10.231,4.095 2.072,2.996 0.907,5.972 -2.544,6.692 -3.416,0.707 -7.86,-1.052 -9.996,-3.963 -2.163,-2.965 -1.164,-6.031 2.309,-6.824 m -112.89,-83.369 c -2.447,-1.483 -4.087,-4.158 -3.648,-6.005 0.441,-1.867 2.837,-2.149 5.337,-0.63 2.48,1.516 4.082,4.223 3.594,6.043 -0.484,1.802 -2.839,2.055 -5.283,0.592 m 141.803,129.629 c 1.128,2.849 -1.3,5.041 -5.385,4.948 -4.053,-0.095 -8.317,-2.409 -9.575,-5.22 -1.277,-2.867 1.029,-5.182 5.209,-5.129 4.21,0.062 8.597,2.499 9.751,5.401 m -66.976,-88.743 c 2.355,-1.567 6.55,-0.603 9.314,2.142 2.726,2.718 2.978,6.103 0.61,7.581 -2.338,1.458 -6.391,0.518 -9.111,-2.101 -2.746,-2.656 -3.141,-6.074 -0.813,-7.622 M 31.269,215.048 c -0.453,-0.108 -0.991,-0.541 -1.206,-0.974 -0.203,-0.44 -0.019,-0.704 0.436,-0.6 0.453,0.109 1.006,0.538 1.21,0.977 0.217,0.428 0.014,0.7 -0.44,0.597 m 54.942,-5.185 c -2.035,-1.023 -3.67,-3.175 -3.653,-4.809 0.011,-1.649 1.702,-2.136 3.77,-1.089 2.055,1.049 3.672,3.221 3.631,4.846 -0.052,1.61 -1.728,2.08 -3.748,1.052 m -22.747,-3.03 c -1.515,-0.632 -2.937,-2.181 -3.172,-3.479 -0.244,-1.304 0.817,-1.853 2.355,-1.217 1.532,0.641 2.961,2.21 3.171,3.506 0.225,1.285 -0.836,1.813 -2.354,1.19 m 154.269,76.099 c 2.458,2.918 2.006,6.17 -0.952,7.293 -2.925,1.108 -7.257,-0.266 -9.742,-3.088 -2.517,-2.866 -2.223,-6.177 0.721,-7.377 2.979,-1.22 7.473,0.217 9.973,3.172 M 44.854,208.74 c -0.974,-0.31 -2.009,-1.278 -2.311,-2.162 -0.303,-0.886 0.24,-1.344 1.222,-1.032 0.983,0.313 2.017,1.292 2.317,2.173 0.294,0.879 -0.255,1.335 -1.228,1.021 m 93.388,21.907 c -2.729,-1.925 -4.139,-5.023 -3.132,-6.925 1.021,-1.923 4.115,-1.869 6.89,0.123 2.752,1.98 4.098,5.099 3.028,6.953 -1.055,1.836 -4.084,1.77 -6.786,-0.151 m 25.756,16.547 c -2.821,-2.338 -3.808,-5.683 -2.147,-7.477 1.68,-1.82 5.399,-1.334 8.262,1.085 2.836,2.394 3.706,5.74 1.989,7.477 -1.695,1.712 -5.299,1.224 -8.104,-1.085 m -87.373,-9.905 c -2.343,-1.06 -4.342,-3.352 -4.498,-5.137 -0.14,-1.806 1.677,-2.402 4.063,-1.316 2.383,1.077 4.385,3.412 4.484,5.189 0.093,1.758 -1.714,2.316 -4.049,1.264 m 107.552,56.212 c -2.201,1.452 -6.343,0.621 -9.316,-1.861 -3.002,-2.516 -3.72,-5.808 -1.549,-7.357 2.201,-1.568 6.493,-0.719 9.524,1.889 2.995,2.578 3.572,5.855 1.341,7.329 M 35.958,233.399 c -1.333,-0.374 -2.816,-1.624 -3.335,-2.785 -0.511,-1.174 0.154,-1.812 1.499,-1.437 1.341,0.39 2.838,1.644 3.342,2.809 0.502,1.158 -0.177,1.785 -1.506,1.413 m 168.304,80.025 c -2.786,1.105 -7.212,-0.134 -9.953,-2.794 -2.774,-2.699 -2.821,-5.87 -0.033,-7.074 2.829,-1.214 7.416,0.081 10.194,2.867 2.731,2.755 2.61,5.875 -0.208,7.001 M 54.388,233.169 c -1.849,-0.688 -3.694,-2.454 -4.103,-3.974 -0.415,-1.533 0.77,-2.216 2.654,-1.52 1.878,0.696 3.723,2.495 4.108,4.013 0.389,1.502 -0.804,2.16 -2.659,1.481 m 52.547,11.83 c -0.352,1.887 -2.835,2.222 -5.56,0.759 -2.738,-1.462 -4.715,-4.213 -4.428,-6.15 0.308,-1.957 2.822,-2.331 5.615,-0.811 2.781,1.504 4.74,4.294 4.373,6.202 m 27.168,13.169 c -0.925,1.873 -4.056,1.868 -7.033,0.012 -2.985,-1.879 -4.739,-4.957 -3.871,-6.898 0.871,-1.969 4.085,-1.995 7.137,-0.052 3.031,1.928 4.698,5.037 3.767,6.938 M 22.184,237.607 c -0.818,-0.168 -1.854,-0.908 -2.307,-1.677 -0.461,-0.773 -0.156,-1.274 0.67,-1.111 0.826,0.164 1.865,0.915 2.313,1.69 0.45,0.768 0.146,1.258 -0.676,1.098 m 189.014,85.646 c 3.365,-0.806 8.082,0.875 10.48,3.735 2.353,2.82 1.522,5.671 -1.794,6.404 -3.281,0.716 -7.827,-0.885 -10.228,-3.621 -2.437,-2.783 -1.778,-5.707 1.542,-6.518 M 13.457,245.159 c -0.368,-0.03 -0.896,-0.36 -1.158,-0.739 -0.279,-0.361 -0.192,-0.633 0.18,-0.606 0.371,0.04 0.893,0.366 1.16,0.742 0.272,0.369 0.187,0.642 -0.182,0.603 m 146.928,29.536 c -1.563,1.721 -5.267,1.318 -8.321,-0.891 -3.082,-2.235 -4.39,-5.505 -2.878,-7.309 1.531,-1.832 5.354,-1.437 8.484,0.882 3.102,2.298 4.292,5.57 2.715,7.318 m 63.242,67.767 c 3.786,-0.398 8.481,1.61 10.422,4.446 1.906,2.787 0.399,5.28 -3.302,5.621 -3.666,0.329 -8.195,-1.575 -10.185,-4.299 -2.02,-2.774 -0.679,-5.368 3.065,-5.768 M 7.546,275.033 c -0.29,0.008 -0.763,-0.232 -1.06,-0.541 -0.294,-0.312 -0.302,-0.558 -0.014,-0.578 0.289,-0.006 0.76,0.235 1.059,0.54 0.292,0.314 0.302,0.567 0.015,0.579 m 4.703,-8.008 c -0.661,-0.053 -1.63,-0.609 -2.166,-1.262 -0.543,-0.652 -0.439,-1.15 0.227,-1.103 0.665,0.046 1.638,0.619 2.177,1.274 0.532,0.653 0.425,1.136 -0.238,1.091 m 144.952,33.631 c -1.448,1.685 -5.196,1.368 -8.417,-0.718 -3.251,-2.099 -4.803,-5.236 -3.419,-7.005 1.401,-1.798 5.263,-1.484 8.578,0.699 3.281,2.171 4.719,5.309 3.258,7.024 M 35.734,258.942 c -1.603,-0.409 -3.481,-1.812 -4.18,-3.169 -0.715,-1.364 0.022,-2.146 1.65,-1.744 1.625,0.409 3.504,1.848 4.199,3.204 0.68,1.349 -0.067,2.113 -1.669,1.709 m 96.095,26.24 c -0.816,1.857 -4.003,1.92 -7.155,0.152 -3.17,-1.785 -5.166,-4.774 -4.424,-6.699 0.751,-1.952 4.014,-2.046 7.259,-0.199 3.223,1.832 5.137,4.86 4.32,6.746 m -79.78,-31.17 c 2.142,0.711 4.314,2.629 4.866,4.275 0.531,1.635 -0.736,2.389 -2.84,1.695 -2.104,-0.697 -4.28,-2.58 -4.857,-4.228 -0.583,-1.662 0.686,-2.457 2.831,-1.742 m 22.883,4.096 c 2.617,1.071 4.916,3.45 5.147,5.296 0.226,1.83 -1.664,2.454 -4.228,1.418 -2.563,-1.044 -4.872,-3.376 -5.158,-5.234 -0.286,-1.879 1.616,-2.55 4.239,-1.48 m 25.677,8.257 c 2.994,1.454 5.207,4.219 4.968,6.151 -0.242,1.907 -2.787,2.291 -5.712,0.888 -2.937,-1.414 -5.188,-4.133 -5.021,-6.091 0.176,-1.98 2.76,-2.417 5.765,-0.948 m -78.163,-6.404 c 0.676,1.009 0.319,1.672 -0.792,1.491 -1.108,-0.185 -2.555,-1.147 -3.244,-2.155 -0.691,-1.016 -0.343,-1.693 0.777,-1.511 1.119,0.188 2.579,1.16 3.259,2.175 m 146.292,49.409 c 2.073,-1.525 6.393,-0.792 9.605,1.651 3.177,2.414 4,5.537 1.894,6.973 -2.074,1.424 -6.257,0.69 -9.394,-1.633 -3.169,-2.35 -4.135,-5.475 -2.105,-6.991 m 31.076,26.835 c -2.657,1.085 -7.117,-0.03 -10.029,-2.511 -2.951,-2.512 -3.253,-5.509 -0.607,-6.688 2.685,-1.188 7.317,-0.032 10.276,2.57 2.919,2.57 3.052,5.529 0.36,6.629 m 6.042,8.733 c 3.22,-0.805 7.99,0.721 10.582,3.386 2.553,2.625 1.979,5.321 -1.21,6.05 -3.15,0.717 -7.74,-0.742 -10.323,-3.289 -2.618,-2.587 -2.227,-5.345 0.951,-6.147 M 86.417,289.69 c 0.328,1.845 -1.619,2.522 -4.344,1.522 -2.729,-1.001 -5.258,-3.316 -5.649,-5.189 -0.392,-1.901 1.551,-2.619 4.348,-1.594 2.787,1.032 5.313,3.392 5.645,5.261 M 10.57,303.325 c -0.216,0.04 -0.635,-0.129 -0.939,-0.384 -0.301,-0.253 -0.372,-0.489 -0.156,-0.533 0.215,-0.044 0.635,0.132 0.939,0.384 0.299,0.255 0.371,0.49 0.156,0.533 m 95.223,-10.575 c 3.135,1.389 5.549,4.071 5.397,5.984 -0.15,1.887 -2.744,2.314 -5.808,0.982 -3.074,-1.343 -5.519,-3.982 -5.444,-5.915 0.07,-1.96 2.701,-2.44 5.855,-1.051 m -61.61,-10.712 c 0.84,1.467 0.048,2.32 -1.767,1.924 -1.814,-0.399 -3.978,-1.903 -4.855,-3.371 -0.877,-1.487 -0.106,-2.364 1.737,-1.968 1.843,0.409 4.038,1.938 4.885,3.415 m -16.193,3.114 c -1.334,-0.178 -3.122,-1.28 -4.012,-2.45 -0.892,-1.183 -0.529,-1.996 0.818,-1.815 1.35,0.185 3.157,1.301 4.038,2.481 0.866,1.175 0.489,1.969 -0.844,1.784 m -17.933,8.251 c 0.515,-0.025 1.401,0.383 1.968,0.931 0.57,0.542 0.611,1.013 0.096,1.04 -0.513,0.03 -1.392,-0.381 -1.959,-0.925 -0.574,-0.544 -0.62,-1.011 -0.105,-1.046 m 53.612,-9.316 c 0.658,1.701 -0.664,2.516 -2.958,1.84 -2.293,-0.68 -4.73,-2.597 -5.434,-4.313 -0.718,-1.731 0.598,-2.593 2.939,-1.899 2.342,0.689 4.785,2.655 5.453,4.372 m -45.807,5.041 c -0.89,-0.042 -2.238,-0.765 -3.011,-1.621 -0.779,-0.862 -0.689,-1.531 0.208,-1.491 0.897,0.038 2.259,0.772 3.028,1.635 0.773,0.857 0.668,1.514 -0.225,1.477 m 165.291,52.071 c -1.977,1.369 -6.164,0.731 -9.409,-1.43 -3.275,-2.183 -4.417,-5.132 -2.492,-6.59 1.957,-1.478 6.289,-0.829 9.62,1.437 3.292,2.249 4.288,5.194 2.281,6.583 m -25.826,-22.636 c 3.402,2.028 5.008,5.007 3.64,6.67 -1.359,1.63 -5.118,1.374 -8.452,-0.568 -3.357,-1.961 -5.072,-4.925 -3.795,-6.642 1.302,-1.737 5.176,-1.498 8.607,0.54 m 44.745,39.285 c -2.552,1.044 -7.017,0.045 -10.042,-2.255 -3.06,-2.33 -3.543,-5.142 -1.013,-6.281 2.567,-1.15 7.203,-0.112 10.286,2.3 3.043,2.388 3.355,5.167 0.769,6.236 m -70.247,-53.512 c 3.351,1.727 5.443,4.627 4.713,6.47 -0.727,1.812 -3.949,1.92 -7.221,0.26 -3.29,-1.673 -5.458,-4.534 -4.81,-6.413 0.659,-1.904 3.945,-2.053 7.318,-0.317 M 18.854,320.808 c 0.576,0.443 0.723,0.876 0.338,0.961 -0.384,0.086 -1.156,-0.213 -1.732,-0.655 -0.573,-0.449 -0.726,-0.873 -0.344,-0.966 0.386,-0.085 1.167,0.206 1.738,0.66 m 0.205,-8.093 c 0.696,-0.058 1.918,0.479 2.732,1.198 0.802,0.72 0.896,1.349 0.203,1.402 -0.692,0.057 -1.906,-0.472 -2.715,-1.186 -0.814,-0.719 -0.914,-1.35 -0.22,-1.414 m 20.525,-4.935 c -1.509,-0.17 -3.576,-1.342 -4.629,-2.621 -1.055,-1.298 -0.693,-2.208 0.835,-2.038 1.53,0.168 3.626,1.363 4.666,2.657 1.031,1.285 0.639,2.173 -0.872,2.002 m -19.813,21.108 c 0.295,0.207 0.411,0.423 0.254,0.483 -0.154,0.06 -0.518,-0.053 -0.813,-0.261 -0.294,-0.21 -0.413,-0.428 -0.256,-0.484 0.153,-0.063 0.523,0.053 0.815,0.262 m 121.981,-0.567 c 3.442,1.615 5.649,4.379 4.975,6.164 -0.687,1.748 -3.915,1.903 -7.269,0.351 -3.375,-1.563 -5.647,-4.285 -5.069,-6.104 0.598,-1.841 3.901,-2.037 7.363,-0.411 m -25.233,-11.064 c 3.245,1.306 5.786,3.892 5.701,5.764 -0.103,1.843 -2.723,2.305 -5.887,1.048 -3.173,-1.262 -5.746,-3.798 -5.739,-5.687 0.017,-1.917 2.666,-2.431 5.925,-1.125 m 53.734,30.69 c -1.297,1.57 -5.069,1.369 -8.474,-0.44 -3.428,-1.826 -5.254,-4.625 -4.043,-6.274 1.243,-1.665 5.118,-1.493 8.63,0.406 3.481,1.885 5.202,4.712 3.887,6.308 M 75.707,308.274 c 0.755,1.723 -0.616,2.577 -3.056,1.938 -2.436,-0.651 -5.071,-2.558 -5.869,-4.299 -0.826,-1.755 0.532,-2.662 3.024,-2.005 2.491,0.658 5.132,2.624 5.901,4.366 m 22.39,5.879 c 0.398,1.833 -1.593,2.537 -4.439,1.593 -2.851,-0.945 -5.538,-3.206 -6.005,-5.067 -0.473,-1.886 1.511,-2.64 4.435,-1.668 2.918,0.972 5.617,3.283 6.009,5.142 M 50.784,302.009 c 2.014,0.383 4.446,1.965 5.423,3.51 0.974,1.529 0.14,2.454 -1.839,2.07 -1.975,-0.384 -4.379,-1.924 -5.384,-3.457 -1.003,-1.556 -0.211,-2.505 1.8,-2.123 m 140.803,60.682 c -1.914,1.311 -6.103,0.751 -9.413,-1.256 -3.342,-2.031 -4.596,-4.799 -2.745,-6.196 1.883,-1.416 6.213,-0.856 9.618,1.254 3.369,2.09 4.478,4.86 2.54,6.198 M 28.748,310.494 c -1.072,-0.029 -2.731,-0.85 -3.708,-1.85 -0.986,-1.006 -0.915,-1.812 0.165,-1.785 1.081,0.023 2.755,0.864 3.735,1.87 0.968,1.006 0.88,1.791 -0.192,1.765 m 4.906,42.014 c 0.283,0.163 0.425,0.358 0.322,0.433 -0.106,0.069 -0.415,-0.005 -0.699,-0.168 -0.281,-0.165 -0.427,-0.363 -0.321,-0.433 0.101,-0.075 0.417,-10e-4 0.698,0.168 m -1.478,-21.342 c 0.842,-0.089 2.353,0.525 3.37,1.375 1.014,0.844 1.146,1.6 0.307,1.684 -0.837,0.088 -2.332,-0.52 -3.345,-1.361 -1.02,-0.843 -1.173,-1.606 -0.332,-1.698 m -1.315,13.795 c 0.557,0.368 0.783,0.751 0.51,0.875 -0.277,0.115 -0.951,-0.079 -1.505,-0.445 -0.559,-0.367 -0.787,-0.757 -0.513,-0.877 0.273,-0.119 0.951,0.079 1.508,0.447 m 19.094,-18.869 c -1.194,-1.364 -0.822,-2.351 0.852,-2.202 1.678,0.15 4.003,1.385 5.177,2.749 1.169,1.349 0.757,2.312 -0.9,2.161 -1.652,-0.157 -3.944,-1.359 -5.129,-2.708 m -10.549,0.442 c 1.233,0 3.163,0.911 4.318,2.017 1.139,1.105 1.064,1.987 -0.158,1.984 -1.221,-0.007 -3.133,-0.89 -4.282,-1.99 -1.159,-1.107 -1.107,-2.006 0.122,-2.011 m 46.054,-0.402 c 2.615,0.618 5.412,2.556 6.244,4.3 0.824,1.724 -0.595,2.618 -3.15,2.006 -2.555,-0.61 -5.331,-2.491 -6.207,-4.229 -0.886,-1.76 0.501,-2.697 3.113,-2.077 m 63.147,24.485 c 0.566,-1.779 3.899,-2.008 7.431,-0.489 3.51,1.514 5.807,4.149 5.149,5.87 -0.65,1.693 -3.922,1.873 -7.342,0.421 -3.434,-1.463 -5.788,-4.05 -5.238,-5.802 M 28.941,337.313 c 0.521,-0.128 1.606,0.251 2.414,0.85 0.814,0.587 1.038,1.174 0.518,1.302 -0.519,0.123 -1.59,-0.255 -2.4,-0.843 -0.812,-0.592 -1.049,-1.175 -0.532,-1.309 m 78.606,-5.848 c 3.022,0.914 5.842,3.159 6.28,4.991 0.438,1.805 -1.598,2.532 -4.544,1.64 -2.948,-0.889 -5.76,-3.077 -6.267,-4.91 -0.526,-1.856 1.504,-2.637 4.531,-1.721 m -35.4,-4.283 c 1.061,1.57 0.202,2.537 -1.912,2.177 -2.108,-0.356 -4.697,-1.908 -5.803,-3.473 -1.108,-1.589 -0.285,-2.595 1.863,-2.235 2.15,0.361 4.778,1.948 5.852,3.531 m 59.281,19.016 c -3.252,-1.183 -5.912,-3.614 -5.944,-5.452 -0.024,-1.867 2.667,-2.402 6.011,-1.178 3.332,1.223 5.977,3.708 5.912,5.533 -0.06,1.794 -2.736,2.275 -5.979,1.097 m 48.427,16.439 c 3.544,1.764 5.335,4.439 4.049,5.975 -1.275,1.505 -5.068,1.354 -8.525,-0.337 -3.48,-1.701 -5.377,-4.351 -4.193,-5.93 1.203,-1.604 5.1,-1.48 8.669,0.292 M 110.667,350.41 c 0.862,1.717 -0.607,2.622 -3.271,2.057 -2.66,-0.574 -5.55,-2.418 -6.479,-4.141 -0.927,-1.754 0.5,-2.71 3.224,-2.134 2.722,0.585 5.648,2.482 6.526,4.218 m -60.041,23.259 c 0.264,0.134 0.428,0.306 0.365,0.385 -0.064,0.078 -0.324,0.032 -0.591,-0.097 -0.264,-0.135 -0.434,-0.31 -0.367,-0.385 0.062,-0.078 0.327,-0.038 0.593,0.097 M 68.77,342.875 c 1.809,0.128 4.327,1.379 5.61,2.791 1.273,1.394 0.84,2.413 -0.943,2.282 -1.778,-0.13 -4.26,-1.349 -5.55,-2.745 -1.313,-1.4 -0.918,-2.45 0.883,-2.328 m -12.191,1.8 c 1.362,-0.025 3.521,0.921 4.812,2.102 1.277,1.179 1.213,2.136 -0.138,2.156 -1.348,0.018 -3.471,-0.909 -4.766,-2.074 -1.299,-1.175 -1.266,-2.154 0.092,-2.184 M 171.543,375.8 c -3.493,-1.371 -5.897,-3.841 -5.349,-5.535 0.564,-1.722 3.946,-1.978 7.541,-0.554 3.579,1.426 5.923,3.936 5.268,5.607 -0.65,1.64 -3.98,1.846 -7.46,0.482 M 46.459,366.717 c 0.534,0.295 0.814,0.652 0.626,0.787 -0.182,0.141 -0.762,0.008 -1.293,-0.284 -0.534,-0.294 -0.814,-0.648 -0.632,-0.787 0.186,-0.139 0.764,-0.01 1.299,0.284 m 1.096,-10.71 c -0.631,0.164 -1.957,-0.272 -2.97,-0.971 -1.019,-0.701 -1.334,-1.412 -0.703,-1.582 0.633,-0.169 1.972,0.273 2.992,0.978 1.011,0.708 1.315,1.411 0.681,1.575 m 4.681,-6.18 c 1.188,0.938 1.36,1.792 0.398,1.908 -0.958,0.115 -2.69,-0.543 -3.88,-1.473 -1.194,-0.94 -1.393,-1.802 -0.431,-1.925 0.964,-0.121 2.721,0.545 3.913,1.49 m -9.274,9.787 c 0.374,-0.171 1.316,0.087 2.105,0.576 0.786,0.493 1.118,1.021 0.746,1.191 -0.372,0.171 -1.311,-0.088 -2.096,-0.573 -0.786,-0.488 -1.125,-1.02 -0.755,-1.194 m 83.175,-7.955 c 3.119,0.862 6.025,3.039 6.491,4.838 0.455,1.774 -1.637,2.516 -4.674,1.678 -3.038,-0.837 -5.932,-2.955 -6.473,-4.753 -0.541,-1.826 1.535,-2.623 4.656,-1.763 m 29.667,13.255 c -0.06,1.749 -2.789,2.249 -6.107,1.142 -3.325,-1.114 -6.062,-3.446 -6.094,-5.234 -0.042,-1.817 2.71,-2.377 6.133,-1.223 3.414,1.149 6.127,3.539 6.068,5.315 M 84.768,343.296 c 2.274,0.332 5.062,1.913 6.211,3.515 1.134,1.584 0.23,2.585 -2.002,2.257 -2.227,-0.332 -4.971,-1.87 -6.151,-3.453 -1.186,-1.603 -0.328,-2.643 1.942,-2.319 m 4.109,16.654 c 1.93,0.1 4.621,1.358 5.991,2.804 1.355,1.431 0.898,2.492 -1.006,2.387 -1.896,-0.107 -4.537,-1.338 -5.922,-2.755 -1.394,-1.438 -0.986,-2.533 0.937,-2.436 m 53.437,11.467 c -0.552,-1.796 1.603,-2.616 4.825,-1.807 3.219,0.812 6.21,2.928 6.677,4.703 0.458,1.75 -1.714,2.506 -4.848,1.718 -3.133,-0.791 -6.11,-2.843 -6.654,-4.614 m -13.862,-1.111 c -2.766,-0.534 -5.762,-2.342 -6.722,-4.053 -0.959,-1.742 0.534,-2.726 3.367,-2.187 2.838,0.543 5.88,2.403 6.779,4.133 0.889,1.707 -0.653,2.641 -3.424,2.107 m 42.1,7.089 c 3.503,1.086 6.272,3.395 6.2,5.135 -0.078,1.711 -2.891,2.229 -6.293,1.182 -3.406,-1.052 -6.188,-3.298 -6.219,-5.047 -0.018,-1.777 2.802,-2.354 6.312,-1.27 M 69.67,392.518 c 0.247,0.107 0.414,0.255 0.395,0.34 -0.029,0.082 -0.249,0.061 -0.497,-0.042 -0.246,-0.106 -0.42,-0.256 -0.395,-0.339 0.029,-0.083 0.249,-0.064 0.497,0.041 m -3.012,-28.515 c 1.076,-0.154 3.048,0.55 4.394,1.563 1.34,1.006 1.54,1.945 0.468,2.091 -1.07,0.146 -3.01,-0.544 -4.35,-1.544 -1.349,-1.008 -1.581,-1.952 -0.512,-2.11 m 36.724,-0.739 c -1.249,-1.613 -0.341,-2.694 2.045,-2.396 2.394,0.3 5.323,1.87 6.529,3.483 1.184,1.597 0.232,2.628 -2.118,2.327 -2.34,-0.301 -5.222,-1.822 -6.456,-3.414 m -44.451,10.368 c 0.456,-0.221 1.632,0.077 2.627,0.663 0.99,0.582 1.415,1.233 0.957,1.45 -0.456,0.215 -1.622,-0.079 -2.61,-0.657 -0.987,-0.586 -1.426,-1.234 -0.974,-1.456 m 3.007,-3.521 c -1.195,-0.789 -1.58,-1.597 -0.852,-1.806 0.73,-0.21 2.301,0.268 3.498,1.063 1.192,0.791 1.556,1.592 0.824,1.797 -0.731,0.201 -2.278,-0.272 -3.47,-1.054 m 2.56,16.054 c 0.498,0.243 0.817,0.555 0.706,0.703 -0.109,0.151 -0.604,0.08 -1.104,-0.159 -0.5,-0.235 -0.815,-0.552 -0.71,-0.704 0.11,-0.151 0.605,-0.079 1.108,0.16 m -2.842,-6.166 c 0.752,0.401 1.159,0.885 0.907,1.079 -0.254,0.193 -1.06,0.033 -1.811,-0.361 -0.754,-0.399 -1.16,-0.879 -0.915,-1.081 0.252,-0.197 1.063,-0.034 1.819,0.363 m 14.242,-18.901 c 1.481,-0.052 3.839,0.912 5.25,2.152 1.401,1.226 1.33,2.251 -0.14,2.298 -1.462,0.044 -3.776,-0.906 -5.191,-2.119 -1.422,-1.231 -1.394,-2.275 0.081,-2.331 m 94.178,24.309 c 3.339,0.768 6.414,2.837 6.867,4.597 0.438,1.734 -1.838,2.51 -5.082,1.765 -3.243,-0.748 -6.296,-2.752 -6.833,-4.502 -0.543,-1.781 1.712,-2.622 5.048,-1.86 m -73.309,-9.666 c 1.598,-0.083 4.139,0.896 5.658,2.179 1.504,1.272 1.423,2.353 -0.163,2.427 -1.578,0.07 -4.069,-0.889 -5.589,-2.145 -1.53,-1.272 -1.497,-2.377 0.094,-2.461 m 28.787,3.117 c -1.294,-1.625 -0.327,-2.738 2.185,-2.472 2.519,0.269 5.59,1.823 6.837,3.45 1.228,1.608 0.205,2.674 -2.267,2.402 -2.462,-0.271 -5.478,-1.776 -6.755,-3.38 m 22.274,0.951 c 2.962,0.505 6.118,2.336 7.029,4.064 0.898,1.705 -0.732,2.662 -3.623,2.163 -2.883,-0.5 -5.986,-2.273 -6.96,-3.978 -0.983,-1.737 0.599,-2.753 3.554,-2.249 m -37.268,-4.718 c 2.051,0.07 4.905,1.333 6.354,2.805 1.429,1.458 0.929,2.564 -1.097,2.486 -2.017,-0.078 -4.816,-1.306 -6.273,-2.753 -1.471,-1.468 -1.028,-2.605 1.016,-2.538 m -30.349,22.617 c 0.715,0.324 1.173,0.76 1.023,0.973 -0.15,0.211 -0.845,0.126 -1.555,-0.198 -0.715,-0.32 -1.172,-0.757 -1.028,-0.972 0.146,-0.216 0.845,-0.125 1.56,0.197 m 3.963,5.767 c 0.47,0.193 0.814,0.473 0.763,0.628 -0.046,0.156 -0.466,0.126 -0.935,-0.063 -0.467,-0.192 -0.805,-0.47 -0.764,-0.627 0.047,-0.156 0.466,-0.128 0.936,0.062 m 2.386,-25.414 c 1.181,-0.189 3.347,0.54 4.834,1.61 1.47,1.071 1.696,2.07 0.515,2.25 -1.174,0.176 -3.305,-0.534 -4.78,-1.588 -1.482,-1.067 -1.746,-2.082 -0.569,-2.272 m -5.673,5.666 c -1.355,-0.858 -1.8,-1.754 -0.981,-2.001 0.822,-0.248 2.596,0.256 3.958,1.118 1.351,0.865 1.771,1.749 0.945,1.991 -0.823,0.236 -2.574,-0.257 -3.922,-1.108 m -0.049,5.063 c -0.533,0.261 -1.907,-0.058 -3.072,-0.714 -1.174,-0.656 -1.697,-1.407 -1.172,-1.678 0.531,-0.266 1.919,0.053 3.095,0.72 1.171,0.664 1.683,1.409 1.149,1.672 m 9.255,20.464 c 0.229,0.083 0.413,0.219 0.413,0.301 -0.006,0.083 -0.186,0.083 -0.415,0 -0.228,-0.082 -0.418,-0.217 -0.413,-0.3 -0.005,-0.083 0.187,-0.088 0.415,-10e-4 M 78.589,392.17 c 0.953,0.484 1.474,1.077 1.162,1.325 -0.305,0.254 -1.324,0.066 -2.273,-0.411 -0.952,-0.479 -1.477,-1.071 -1.174,-1.327 0.303,-0.256 1.328,-0.067 2.285,0.413 m 26.356,26.677 c 0.44,0.146 0.8,0.399 0.8,0.557 0.012,0.157 -0.347,0.163 -0.785,0.012 -0.437,-0.147 -0.794,-0.399 -0.799,-0.557 -0.013,-0.157 0.344,-0.162 0.784,-0.012 m 46.417,-28.937 c 2.662,0.237 5.881,1.783 7.162,3.431 1.263,1.63 0.154,2.732 -2.459,2.49 -2.599,-0.244 -5.749,-1.738 -7.068,-3.355 -1.33,-1.645 -0.288,-2.8 2.365,-2.566 m -51.259,23.572 c 0.675,0.258 1.168,0.653 1.105,0.874 -0.064,0.222 -0.657,0.188 -1.328,-0.067 -0.67,-0.263 -1.166,-0.648 -1.107,-0.872 0.063,-0.224 0.656,-0.194 1.33,0.065 m 24.523,-20.128 c -1.699,0.1 -4.371,-0.86 -5.983,-2.163 -1.628,-1.313 -1.582,-2.474 0.128,-2.593 1.721,-0.117 4.449,0.871 6.065,2.199 1.599,1.317 1.498,2.454 -0.21,2.557 m -19.316,3.618 c -0.914,0.275 -2.86,-0.233 -4.354,-1.143 -1.503,-0.917 -1.999,-1.889 -1.093,-2.178 0.915,-0.286 2.89,0.227 4.4,1.156 1.505,0.918 1.966,1.887 1.047,2.165 m -8.554,6.15 c 1.138,0.55 1.76,1.239 1.396,1.544 -0.362,0.299 -1.57,0.104 -2.699,-0.442 -1.135,-0.544 -1.77,-1.24 -1.414,-1.544 0.356,-0.31 1.574,-0.109 2.717,0.442 m 0.495,5.051 c 0.911,0.392 1.498,0.934 1.313,1.206 -0.18,0.272 -1.063,0.171 -1.968,-0.217 -0.905,-0.394 -1.492,-0.926 -1.323,-1.205 0.184,-0.271 1.065,-0.18 1.978,0.216 m 78.201,-8.407 c -3.02,-0.468 -6.241,-2.217 -7.22,-3.932 -0.985,-1.743 0.699,-2.791 3.798,-2.323 3.109,0.469 6.386,2.281 7.299,4.019 0.901,1.712 -0.845,2.701 -3.877,2.236 m -64.027,24.324 c 0.212,0.065 0.408,0.181 0.425,0.265 0.025,0.082 -0.13,0.099 -0.341,0.033 -0.213,-0.064 -0.403,-0.183 -0.426,-0.265 -0.024,-0.083 0.131,-0.1 0.342,-0.033 m -3.846,-33.618 c 1.289,-0.223 3.65,0.516 5.263,1.64 1.594,1.125 1.832,2.194 0.545,2.405 -1.282,0.208 -3.601,-0.513 -5.199,-1.618 -1.611,-1.113 -1.891,-2.201 -0.609,-2.427 m 31.37,3.255 c -2.147,-0.05 -5.104,-1.278 -6.631,-2.751 -1.546,-1.493 -1.053,-2.684 1.124,-2.649 2.188,0.038 5.206,1.307 6.725,2.808 1.498,1.489 0.94,2.643 -1.218,2.592 m -38.646,6.718 c -0.607,0.303 -2.171,-0.03 -3.505,-0.749 -1.34,-0.72 -1.946,-1.56 -1.348,-1.876 0.602,-0.312 2.186,0.027 3.533,0.755 1.341,0.73 1.928,1.56 1.32,1.87 m 16.737,22.005 c 0.865,0.317 1.504,0.808 1.428,1.093 -0.075,0.284 -0.834,0.26 -1.692,-0.059 -0.862,-0.314 -1.502,-0.804 -1.433,-1.091 0.074,-0.287 0.831,-0.263 1.697,0.057 m -1.827,-4.969 c 1.097,0.455 1.81,1.09 1.59,1.417 -0.214,0.329 -1.271,0.23 -2.358,-0.219 -1.091,-0.447 -1.811,-1.085 -1.6,-1.414 0.205,-0.337 1.271,-0.239 2.368,0.216 m 5.413,-13.427 c 1.007,-0.333 3.179,0.197 4.839,1.176 1.649,0.978 2.149,2.023 1.135,2.342 -1.011,0.312 -3.145,-0.205 -4.785,-1.165 -1.65,-0.969 -2.19,-2.022 -1.189,-2.353 m 55.489,-2.545 c 2.831,0.204 6.216,1.748 7.53,3.43 1.295,1.66 0.071,2.812 -2.704,2.602 -2.759,-0.213 -6.068,-1.704 -7.42,-3.352 -1.368,-1.672 -0.222,-2.879 2.594,-2.68 m -55.213,25.992 c 0.632,0.209 1.161,0.559 1.163,0.784 0.013,0.226 -0.491,0.246 -1.121,0.036 -0.631,-0.204 -1.149,-0.555 -1.166,-0.782 -0.012,-0.227 0.49,-0.242 1.124,-0.038 m 36.401,-27.798 c 2.343,0.003 5.548,1.273 7.13,2.818 1.563,1.528 0.932,2.737 -1.378,2.72 -2.296,-0.022 -5.425,-1.25 -7.021,-2.759 -1.612,-1.531 -1.059,-2.779 1.269,-2.779 m -27.888,1.531 c 1.405,-0.264 3.965,0.487 5.703,1.662 1.718,1.175 1.96,2.315 0.554,2.563 -1.397,0.245 -3.906,-0.485 -5.626,-1.637 -1.735,-1.164 -2.026,-2.323 -0.631,-2.588 m -2.963,31.237 c 0.409,0.117 0.782,0.339 0.825,0.497 0.053,0.155 -0.241,0.185 -0.651,0.072 -0.407,-0.118 -0.771,-0.34 -0.825,-0.495 -0.047,-0.158 0.241,-0.191 0.651,-0.074 m -10.671,-19.675 c 1.313,0.614 2.036,1.391 1.617,1.744 -0.416,0.35 -1.805,0.147 -3.109,-0.455 -1.31,-0.602 -2.045,-1.384 -1.64,-1.743 0.411,-0.359 1.814,-0.158 3.132,0.454 m 17.587,24.425 c 0.195,0.05 0.391,0.154 0.434,0.234 0.043,0.08 -0.082,0.106 -0.28,0.059 -0.194,-0.051 -0.394,-0.151 -0.432,-0.234 -0.042,-0.081 0.081,-0.108 0.278,-0.059 m 14.49,-32.616 c -1.831,0.133 -4.684,-0.836 -6.395,-2.176 -1.727,-1.36 -1.658,-2.584 0.186,-2.74 1.858,-0.152 4.778,0.843 6.493,2.218 1.699,1.363 1.562,2.562 -0.284,2.698 m -27.286,6.079 c -0.68,0.346 -2.436,0.009 -3.928,-0.769 -1.503,-0.776 -2.185,-1.702 -1.515,-2.062 0.675,-0.364 2.454,-0.016 3.966,0.773 1.507,0.784 2.162,1.705 1.477,2.058 m 38.026,4.083 c -1.525,0.284 -4.24,-0.453 -6.086,-1.656 -1.863,-1.215 -2.158,-2.453 -0.636,-2.763 1.535,-0.311 4.312,0.444 6.178,1.68 1.85,1.225 2.083,2.447 0.544,2.739 m -16.27,25.167 c 0.594,0.162 1.14,0.474 1.211,0.701 0.075,0.225 -0.347,0.281 -0.938,0.12 -0.593,-0.159 -1.132,-0.474 -1.212,-0.7 -0.081,-0.225 0.344,-0.282 0.939,-0.121 m -5.107,-16.843 c -0.471,0.404 -2.045,0.199 -3.52,-0.453 -1.481,-0.658 -2.315,-1.524 -1.857,-1.939 0.463,-0.414 2.052,-0.215 3.547,0.453 1.491,0.664 2.307,1.534 1.83,1.939 m 44.816,-13.84 c 2.525,-0.037 5.938,1.244 7.591,2.843 1.631,1.58 0.909,2.858 -1.581,2.876 -2.472,0.015 -5.798,-1.222 -7.465,-2.779 -1.685,-1.58 -1.05,-2.901 1.455,-2.94 m -40.077,3.668 c 1.11,-0.38 3.493,0.151 5.303,1.191 1.797,1.033 2.331,2.159 1.21,2.524 -1.114,0.36 -3.451,-0.163 -5.236,-1.178 -1.8,-1.017 -2.378,-2.155 -1.277,-2.537 m -6.59,3.544 c 0.753,-0.412 2.729,-0.064 4.408,0.779 1.67,0.845 2.392,1.846 1.629,2.249 -0.76,0.4 -2.709,0.051 -4.365,-0.776 -1.662,-0.831 -2.416,-1.838 -1.672,-2.252 m -1.569,9.122 c 1.276,0.508 2.103,1.227 1.856,1.615 -0.257,0.38 -1.477,0.294 -2.742,-0.21 -1.269,-0.497 -2.104,-1.219 -1.87,-1.612 0.244,-0.39 1.476,-0.3 2.756,0.207 m 14.665,18.943 c 0.382,0.086 0.765,0.283 0.847,0.44 0.086,0.154 -0.153,0.208 -0.534,0.121 -0.381,-0.084 -0.755,-0.285 -0.845,-0.439 -0.086,-0.156 0.151,-0.212 0.532,-0.122 m -13.804,-14.214 c 1.05,0.369 1.83,0.951 1.741,1.297 -0.09,0.344 -1.005,0.328 -2.045,-0.038 -1.045,-0.365 -1.826,-0.943 -1.748,-1.292 0.081,-0.349 0.999,-0.335 2.052,0.033 m 37.171,-16.176 c -1.985,0.173 -5.04,-0.807 -6.855,-2.196 -1.831,-1.408 -1.725,-2.713 0.273,-2.908 2.015,-0.196 5.147,0.809 6.967,2.238 1.803,1.414 1.616,2.691 -0.385,2.866 m -16.095,34.687 c 0.18,0.035 0.381,0.124 0.439,0.204 0.06,0.078 -0.039,0.115 -0.222,0.081 -0.181,-0.035 -0.378,-0.127 -0.437,-0.206 -0.059,-0.081 0.039,-0.116 0.22,-0.079 M 137.62,435.151 c 0.819,0.255 1.498,0.697 1.516,0.989 0.018,0.29 -0.629,0.322 -1.443,0.07 -0.817,-0.247 -1.5,-0.692 -1.518,-0.986 -0.027,-0.292 0.625,-0.328 1.445,-0.073 m 26.59,15.778 c 0.56,0.117 1.118,0.401 1.248,0.626 0.128,0.225 -0.215,0.308 -0.771,0.19 -0.557,-0.119 -1.117,-0.397 -1.247,-0.625 -0.133,-0.225 0.211,-0.31 0.77,-0.191 m 6.646,4.239 c 0.355,0.063 0.741,0.237 0.861,0.389 0.118,0.153 -0.07,0.222 -0.424,0.161 -0.355,-0.064 -0.738,-0.236 -0.86,-0.387 -0.123,-0.151 0.068,-0.225 0.423,-0.163 m -7.137,-34.945 c 1.225,-0.44 3.835,0.097 5.806,1.195 1.959,1.087 2.52,2.31 1.279,2.729 -1.232,0.41 -3.787,-0.114 -5.727,-1.184 -1.955,-1.076 -2.573,-2.304 -1.358,-2.74 m -10.238,9.628 c -1.656,-0.705 -2.587,-1.66 -2.076,-2.136 0.519,-0.477 2.304,-0.282 3.981,0.436 1.67,0.719 2.58,1.673 2.046,2.14 -0.532,0.463 -2.298,0.263 -3.951,-0.44 m 36.037,-13.232 c 2.197,-0.249 5.576,0.772 7.512,2.267 1.914,1.48 1.665,2.846 -0.519,3.07 -2.167,0.221 -5.457,-0.768 -7.383,-2.221 -1.945,-1.468 -1.788,-2.867 0.39,-3.116 m -36.8,20.41 c 1.237,0.413 2.158,1.082 2.053,1.491 -0.101,0.407 -1.175,0.405 -2.397,-0.005 -1.227,-0.408 -2.145,-1.073 -2.061,-1.486 0.09,-0.414 1.167,-0.414 2.405,0 m 2.11,4.713 c 1.004,0.298 1.845,0.823 1.865,1.18 0.032,0.355 -0.761,0.404 -1.757,0.114 -0.996,-0.298 -1.828,-0.818 -1.866,-1.175 -0.029,-0.361 0.753,-0.412 1.758,-0.119 m 3.941,4.676 c 0.777,0.196 1.487,0.597 1.588,0.891 0.101,0.292 -0.444,0.371 -1.216,0.175 -0.771,-0.194 -1.48,-0.592 -1.587,-0.886 -0.108,-0.295 0.437,-0.376 1.215,-0.18 m 23.313,-23.983 c -1.675,0.336 -4.618,-0.405 -6.602,-1.669 -2.001,-1.274 -2.295,-2.606 -0.625,-2.972 1.683,-0.365 4.701,0.394 6.707,1.697 1.992,1.286 2.209,2.604 0.52,2.944 m -3.206,36.792 c 0.071,0.08 0,0.121 -0.168,0.096 -0.168,-0.022 -0.367,-0.102 -0.441,-0.179 -0.074,-0.08 -0.002,-0.118 0.166,-0.098 0.168,0.023 0.363,0.109 0.443,0.181 m -22.888,-35.606 c 0.836,-0.473 3.028,-0.129 4.878,0.775 1.844,0.897 2.632,1.994 1.778,2.451 -0.85,0.453 -3.004,0.106 -4.828,-0.772 -1.829,-0.887 -2.655,-1.981 -1.828,-2.454 m -3.204,8.816 c 1.464,0.552 2.408,1.365 2.124,1.813 -0.287,0.442 -1.684,0.357 -3.131,-0.187 -1.45,-0.55 -2.408,-1.354 -2.142,-1.808 0.272,-0.455 1.684,-0.378 3.149,0.182 m 40.769,32.079 c 0.333,0.037 0.722,0.196 0.876,0.341 0.151,0.15 0.007,0.233 -0.325,0.196 -0.33,-0.044 -0.718,-0.196 -0.874,-0.34 -0.15,-0.152 -0.008,-0.237 0.323,-0.197 m -13.2,-8.146 c 0.735,0.144 1.472,0.506 1.648,0.8 0.17,0.297 -0.276,0.41 -1.006,0.266 -0.73,-0.148 -1.471,-0.499 -1.647,-0.796 -0.181,-0.294 0.27,-0.417 1.005,-0.27 m -3.504,-27.095 c 0.932,-0.543 3.356,-0.202 5.399,0.757 2.03,0.958 2.886,2.156 1.93,2.682 -0.948,0.519 -3.329,0.177 -5.336,-0.757 -2.017,-0.941 -2.914,-2.14 -1.993,-2.682 m 8.959,-3.361 c 1.359,-0.508 4.226,0.024 6.376,1.19 2.135,1.16 2.724,2.487 1.343,2.97 -1.367,0.478 -4.169,-0.049 -6.283,-1.18 -2.127,-1.139 -2.781,-2.472 -1.436,-2.98 m 16.051,42.246 c 0.09,0.073 0.037,0.125 -0.12,0.112 -0.156,-0.008 -0.354,-0.084 -0.444,-0.156 -0.091,-0.074 -0.038,-0.12 0.118,-0.112 0.156,0.016 0.355,0.082 0.446,0.156 m -28.382,-32.473 c -1.849,-0.755 -2.884,-1.808 -2.309,-2.352 0.585,-0.543 2.578,-0.365 4.449,0.406 1.863,0.771 2.875,1.826 2.268,2.359 -0.601,0.527 -2.571,0.342 -4.408,-0.413 m -1.165,11.53 c 1.19,0.333 2.179,0.946 2.218,1.37 0.028,0.422 -0.897,0.495 -2.077,0.17 -1.181,-0.327 -2.176,-0.936 -2.219,-1.361 -0.044,-0.429 0.885,-0.51 2.078,-0.179 m 2.079,-7.212 c -0.326,0.51 -1.91,0.444 -3.545,-0.15 -1.639,-0.59 -2.72,-1.488 -2.422,-2.012 0.31,-0.522 1.903,-0.46 3.563,0.14 1.658,0.605 2.73,1.506 2.404,2.022 m -3.381,2.532 c 1.427,0.454 2.486,1.212 2.373,1.689 -0.116,0.472 -1.352,0.491 -2.763,0.042 -1.413,-0.452 -2.476,-1.199 -2.381,-1.678 0.101,-0.484 1.34,-0.509 2.771,-0.053 m 4.527,9.333 c 0.958,0.23 1.839,0.709 1.968,1.071 0.125,0.363 -0.541,0.469 -1.491,0.243 -0.95,-0.227 -1.83,-0.704 -1.966,-1.066 -0.135,-0.364 0.53,-0.475 1.489,-0.248 m 10.913,8.743 c 0.524,0.084 1.098,0.334 1.279,0.557 0.183,0.221 -0.095,0.329 -0.618,0.248 -0.522,-0.083 -1.095,-0.331 -1.278,-0.554 -0.186,-0.221 0.092,-0.335 0.617,-0.251 m 12.456,-33.867 c -2.156,-1.349 -2.442,-2.79 -0.6,-3.222 1.859,-0.434 5.151,0.337 7.321,1.711 2.146,1.368 2.344,2.791 0.476,3.196 -1.851,0.398 -5.055,-0.355 -7.197,-1.685 m -11.439,25.022 c -0.056,-0.501 1.02,-0.613 2.41,-0.252 1.39,0.362 2.543,1.063 2.59,1.56 0.038,0.495 -1.038,0.605 -2.41,0.243 -1.373,-0.356 -2.527,-1.052 -2.59,-1.551 m 29.072,20.898 c 0.308,0.021 0.705,0.156 0.889,0.298 0.182,0.141 0.078,0.243 -0.231,0.225 -0.308,-0.023 -0.705,-0.153 -0.886,-0.297 -0.183,-0.144 -0.081,-0.246 0.228,-0.226 m -25.272,-30.514 c 1.867,0.648 3.072,1.656 2.702,2.248 -0.371,0.585 -2.154,0.543 -3.994,-0.093 -1.844,-0.637 -3.069,-1.638 -2.726,-2.235 0.346,-0.603 2.146,-0.572 4.018,0.08 m 17.734,26.935 c 0.492,0.058 1.082,0.27 1.31,0.49 0.231,0.217 0.017,0.35 -0.475,0.3 -0.491,-0.053 -1.07,-0.276 -1.306,-0.49 -0.231,-0.219 -0.021,-0.351 0.471,-0.3 m 16.121,6.833 c 0.102,0.073 0.071,0.132 -0.074,0.123 -0.142,-0.002 -0.347,-0.059 -0.448,-0.133 -0.105,-0.072 -0.073,-0.133 0.072,-0.125 0.144,0.003 0.345,0.065 0.45,0.135 M 192.08,448.668 c -0.134,0.548 -1.542,0.595 -3.153,0.107 -1.612,-0.486 -2.83,-1.328 -2.723,-1.883 0.11,-0.559 1.525,-0.615 3.16,-0.12 1.632,0.497 2.844,1.344 2.716,1.896 m 3.889,-10.825 c 2.076,0.83 3.198,1.995 2.511,2.604 -0.677,0.607 -2.877,0.437 -4.923,-0.369 -2.052,-0.812 -3.202,-1.969 -2.556,-2.594 0.654,-0.628 2.882,-0.465 4.968,0.359 m -3.538,18.386 c 1.146,0.26 2.201,0.819 2.363,1.252 0.154,0.432 -0.638,0.575 -1.773,0.322 -1.137,-0.253 -2.189,-0.81 -2.361,-1.242 -0.165,-0.439 0.623,-0.583 1.771,-0.332 m 17.261,-23.063 c -2.325,-1.215 -3.021,-2.676 -1.521,-3.268 1.519,-0.596 4.683,-0.07 7.038,1.178 2.338,1.237 2.954,2.695 1.41,3.261 -1.529,0.557 -4.616,0.034 -6.927,-1.171 m -7.398,31.939 c 0.697,0.098 1.461,0.421 1.705,0.714 0.244,0.294 -0.119,0.451 -0.811,0.345 -0.691,-0.099 -1.451,-0.42 -1.699,-0.711 -0.251,-0.291 0.111,-0.452 0.805,-0.348 m -4.44,-31.763 c 1.044,-0.626 3.733,-0.304 5.989,0.723 2.242,1.025 3.171,2.344 2.095,2.951 -1.064,0.596 -3.703,0.272 -5.914,-0.727 -2.223,-1.002 -3.202,-2.32 -2.17,-2.947 m -1.18,27.451 c 0.916,0.168 1.842,0.601 2.063,0.968 0.226,0.361 -0.335,0.518 -1.243,0.353 -0.907,-0.168 -1.825,-0.598 -2.055,-0.962 -0.227,-0.368 0.322,-0.527 1.235,-0.359 m 52.014,21.767 c 0.118,0.07 0.107,0.136 -0.026,0.136 -0.133,0.008 -0.336,-0.044 -0.454,-0.112 -0.116,-0.072 -0.106,-0.131 0.026,-0.137 0.132,-0.002 0.337,0.044 0.454,0.113 M 207.35,454.55 c 1.603,0.392 2.949,1.185 2.995,1.766 0.054,0.576 -1.189,0.727 -2.769,0.336 -1.58,-0.385 -2.918,-1.17 -2.992,-1.752 -0.07,-0.586 1.165,-0.744 2.766,-0.35 m 33.375,25.39 c 0.209,0.143 0.149,0.249 -0.14,0.253 -0.287,-0.004 -0.687,-0.12 -0.9,-0.255 -0.211,-0.141 -0.15,-0.255 0.136,-0.252 0.287,0 0.692,0.116 0.904,0.254 m -16.162,-7.241 c 0.658,0.062 1.444,0.344 1.757,0.634 0.309,0.29 0.031,0.476 -0.623,0.412 -0.654,-0.055 -1.44,-0.338 -1.75,-0.63 -0.317,-0.287 -0.04,-0.476 0.616,-0.416 m 7.293,3.72 c 0.462,0.023 1.062,0.217 1.339,0.43 0.274,0.217 0.126,0.37 -0.335,0.344 -0.462,-0.019 -1.059,-0.214 -1.335,-0.426 -0.279,-0.212 -0.13,-0.371 0.331,-0.348 M 209.26,459.42 c 1.346,0.285 2.594,0.922 2.784,1.436 0.188,0.51 -0.739,0.697 -2.071,0.421 -1.33,-0.28 -2.573,-0.913 -2.778,-1.425 -0.201,-0.517 0.717,-0.705 2.065,-0.432 m 9.661,-23.729 c 1.174,-0.738 4.171,-0.438 6.674,0.666 2.487,1.107 3.497,2.567 2.282,3.274 -1.202,0.696 -4.138,0.395 -6.585,-0.677 -2.457,-1.078 -3.529,-2.533 -2.371,-3.263 m -9.896,11.635 c -2.071,-0.685 -3.443,-1.792 -3.063,-2.484 0.389,-0.696 2.415,-0.703 4.521,-0.004 2.103,0.697 3.457,1.819 3.036,2.504 -0.421,0.676 -2.428,0.667 -4.494,-0.016 m 9.156,21.255 c 0.872,0.11 1.833,0.505 2.147,0.868 0.311,0.365 -0.139,0.572 -1.003,0.453 -0.866,-0.107 -1.819,-0.502 -2.138,-0.863 -0.317,-0.368 0.125,-0.573 0.994,-0.458 m 0.94,-25.353 c -0.768,0.698 -3.225,0.561 -5.504,-0.303 -2.286,-0.873 -3.562,-2.152 -2.838,-2.877 0.737,-0.728 3.232,-0.604 5.559,0.287 2.32,0.89 3.56,2.184 2.783,2.893 m -11.496,6.411 c 1.857,0.532 3.24,1.486 3.091,2.125 -0.149,0.632 -1.749,0.716 -3.577,0.193 -1.83,-0.522 -3.218,-1.464 -3.099,-2.107 0.12,-0.648 1.726,-0.743 3.585,-0.211 m 5.355,14.49 c 1.103,0.183 2.221,0.696 2.496,1.137 0.273,0.438 -0.393,0.642 -1.485,0.456 -1.091,-0.185 -2.202,-0.69 -2.486,-1.128 -0.283,-0.442 0.376,-0.654 1.475,-0.465 m 20.925,6.833 c 1.057,0.121 2.233,0.578 2.619,1.022 0.386,0.441 -0.154,0.698 -1.203,0.579 -1.048,-0.123 -2.214,-0.575 -2.606,-1.015 -0.397,-0.442 0.136,-0.705 1.19,-0.586 m -9.357,-14.756 c 1.836,0.423 3.38,1.315 3.443,1.992 0.065,0.67 -1.351,0.872 -3.161,0.458 -1.807,-0.414 -3.339,-1.296 -3.435,-1.971 -0.09,-0.682 1.318,-0.897 3.153,-0.479 m 4.518,10.083 c 1.304,0.197 2.63,0.787 2.966,1.31 0.33,0.521 -0.45,0.779 -1.741,0.582 -1.287,-0.201 -2.604,-0.78 -2.951,-1.298 -0.346,-0.525 0.426,-0.794 1.726,-0.594 m 43.537,21.822 c 0.133,0.061 0.14,0.129 0.019,0.147 -0.122,0.016 -0.328,-0.026 -0.46,-0.091 -0.135,-0.063 -0.141,-0.131 -0.02,-0.148 0.122,-0.015 0.328,0.025 0.461,0.092 m -16.201,-5.086 c 0.326,0.204 0.234,0.384 -0.198,0.387 -0.432,0.002 -1.041,-0.161 -1.366,-0.367 -0.325,-0.207 -0.237,-0.382 0.194,-0.387 0.433,-0.004 1.049,0.156 1.37,0.367 m -26.027,-42.166 c 0.83,-0.854 3.63,-0.775 6.243,0.181 2.601,0.959 3.983,2.407 3.1,3.237 -0.87,0.821 -3.63,0.724 -6.18,-0.204 -2.559,-0.93 -3.981,-2.366 -3.163,-3.214 m -4.548,20.483 c 1.567,0.294 3.02,1.031 3.25,1.632 0.225,0.597 -0.846,0.837 -2.391,0.544 -1.542,-0.295 -2.987,-1.018 -3.236,-1.617 -0.245,-0.605 0.815,-0.858 2.377,-0.559 m 3.668,-15.455 c 2.372,0.749 3.896,2.005 3.417,2.801 -0.475,0.787 -2.739,0.832 -5.062,0.096 -2.331,-0.729 -3.875,-1.971 -3.448,-2.777 0.436,-0.812 2.717,-0.87 5.093,-0.12 m 10.533,29.397 c 0.828,0.067 1.827,0.408 2.23,0.772 0.397,0.364 0.051,0.604 -0.772,0.541 -0.824,-0.061 -1.814,-0.408 -2.22,-0.767 -0.408,-0.359 -0.066,-0.603 0.762,-0.546 m 7.127,3.915 c 0.619,0.028 1.43,0.27 1.809,0.554 0.377,0.284 0.179,0.496 -0.44,0.476 -0.617,-0.02 -1.424,-0.266 -1.802,-0.551 -0.379,-0.282 -0.187,-0.492 0.433,-0.479 m 16.278,6.413 c 0.266,-0.027 0.68,0.075 0.919,0.213 0.243,0.134 0.218,0.247 -0.046,0.277 -0.268,0.014 -0.676,-0.08 -0.917,-0.214 -0.241,-0.136 -0.222,-0.262 0.044,-0.276 m -34.294,-32.224 c -0.171,0.734 -1.98,0.87 -4.052,0.312 -2.072,-0.562 -3.649,-1.613 -3.522,-2.358 0.13,-0.754 1.949,-0.905 4.06,-0.336 2.109,0.57 3.678,1.639 3.514,2.382 m 49.421,34.427 c 0.404,-0.029 1.036,0.1 1.404,0.307 0.373,0.2 0.344,0.391 -0.06,0.426 -0.402,0.031 -1.028,-0.107 -1.399,-0.306 -0.371,-0.203 -0.347,-0.392 0.055,-0.427 m 8.86,2.636 c 0.246,-0.032 0.665,0.041 0.936,0.171 0.272,0.132 0.29,0.262 0.047,0.3 -0.245,0.034 -0.663,-0.041 -0.935,-0.172 -0.271,-0.128 -0.293,-0.262 -0.048,-0.299 m 9.494,2.115 c 0.147,0.064 0.177,0.13 0.066,0.157 -0.11,0.022 -0.318,-0.009 -0.465,-0.07 -0.147,-0.061 -0.178,-0.133 -0.067,-0.157 0.11,-0.021 0.318,0.009 0.466,0.07 m -47.674,-20.42 c 1.257,0.122 2.661,0.654 3.135,1.181 0.469,0.528 -0.164,0.853 -1.412,0.73 -1.242,-0.121 -2.636,-0.644 -3.115,-1.17 -0.484,-0.528 0.137,-0.862 1.392,-0.741 m 22.707,12.957 c 0.443,0.28 0.328,0.522 -0.255,0.535 -0.582,0.014 -1.414,-0.193 -1.857,-0.472 -0.443,-0.279 -0.336,-0.518 0.247,-0.538 0.585,-0.014 1.419,0.196 1.865,0.475 M 242.95,464.41 c -1.777,-0.312 -3.453,-1.125 -3.752,-1.825 -0.297,-0.708 0.916,-1.033 2.719,-0.724 1.806,0.311 3.497,1.143 3.77,1.848 0.271,0.7 -0.957,1.006 -2.737,0.701 m 1.758,2.75 c 1.523,0.206 3.084,0.877 3.487,1.494 0.396,0.614 -0.507,0.939 -2.014,0.736 -1.501,-0.205 -3.05,-0.866 -3.465,-1.477 -0.415,-0.62 0.472,-0.955 1.992,-0.753 m -3.454,-10.826 c 2.102,0.445 3.873,1.453 3.957,2.245 0.078,0.783 -1.53,1.056 -3.595,0.617 -2.063,-0.437 -3.824,-1.427 -3.943,-2.217 -0.118,-0.797 1.482,-1.086 3.581,-0.645 m 1.122,-10.964 c 0.487,-0.956 3.063,-1.091 5.751,-0.287 2.685,0.803 4.411,2.222 3.867,3.159 -0.538,0.926 -3.094,1.03 -5.718,0.251 -2.629,-0.783 -4.379,-2.177 -3.9,-3.123 m 19.831,35.558 c 0.787,0.017 1.823,0.314 2.313,0.674 0.484,0.36 0.243,0.633 -0.541,0.625 -0.782,-0.019 -1.812,-0.311 -2.301,-0.67 -0.491,-0.357 -0.256,-0.64 0.529,-0.629 m -7.036,-4.176 c 1.012,0.059 2.238,0.47 2.74,0.909 0.495,0.444 0.082,0.752 -0.924,0.691 -1.002,-0.061 -2.221,-0.46 -2.723,-0.902 -0.508,-0.438 -0.102,-0.753 0.907,-0.698 M 242.58,453.848 c -2.351,-0.597 -4.145,-1.779 -4.011,-2.651 0.14,-0.881 2.194,-1.107 4.594,-0.504 2.398,0.611 4.19,1.812 4.005,2.683 -0.187,0.858 -2.238,1.067 -4.588,0.472 m 79.1,42.04 c 0.165,0.055 0.216,0.133 0.118,0.165 -0.101,0.029 -0.312,0.013 -0.475,-0.048 -0.163,-0.06 -0.218,-0.136 -0.119,-0.165 0.098,-0.038 0.314,-0.016 0.476,0.048 m -36.955,-10.377 c 0.743,-0.038 1.821,0.216 2.397,0.574 0.578,0.352 0.439,0.671 -0.303,0.703 -0.74,0.038 -1.807,-0.221 -2.384,-0.571 -0.58,-0.354 -0.452,-0.668 0.29,-0.706 m -24.743,-37.055 c 2.736,0.645 4.786,2.008 4.587,3.038 -0.201,1.016 -2.527,1.318 -5.199,0.691 -2.672,-0.629 -4.723,-1.964 -4.588,-2.995 0.141,-1.043 2.467,-1.376 5.2,-0.734 m -2.618,19.092 c -0.505,-0.726 0.512,-1.155 2.274,-0.952 1.768,0.205 3.598,0.962 4.078,1.691 0.475,0.722 -0.561,1.137 -2.307,0.931 -1.739,-0.206 -3.546,-0.951 -4.045,-1.67 m -0.157,-12.819 c 2.404,0.466 4.443,1.604 4.553,2.535 0.103,0.921 -1.724,1.289 -4.08,0.83 -2.354,-0.458 -4.38,-1.573 -4.534,-2.498 -0.153,-0.939 1.66,-1.329 4.061,-0.867 m 1.299,9.073 c -2.04,-0.316 -3.977,-1.236 -4.339,-2.058 -0.364,-0.83 1.016,-1.252 3.09,-0.933 2.078,0.324 4.036,1.257 4.368,2.085 0.325,0.823 -1.074,1.228 -3.119,0.906 m 43.974,28.077 c 0.372,-0.067 1.016,0.049 1.44,0.243 0.419,0.199 0.458,0.399 0.085,0.463 -0.374,0.053 -1.016,-0.048 -1.437,-0.244 -0.42,-0.195 -0.462,-0.408 -0.088,-0.462 m 9.349,2.297 c 0.223,-0.052 0.651,0.005 0.956,0.129 0.306,0.123 0.369,0.273 0.146,0.322 -0.225,0.052 -0.653,-0.005 -0.955,-0.129 -0.304,-0.125 -0.371,-0.269 -0.147,-0.322 m -18.457,-5.197 c 0.548,-0.056 1.409,0.12 1.923,0.391 0.511,0.276 0.483,0.539 -0.064,0.591 -0.545,0.059 -1.4,-0.122 -1.914,-0.39 -0.513,-0.27 -0.49,-0.534 0.055,-0.592 m -23.636,-11.987 c 1.209,0.047 2.692,0.514 3.304,1.048 0.609,0.527 0.122,0.914 -1.08,0.87 -1.197,-0.052 -2.661,-0.513 -3.277,-1.039 -0.619,-0.532 -0.152,-0.926 1.053,-0.879 m 7.028,4.513 c 0.964,-0.006 2.246,0.352 2.86,0.791 0.61,0.439 0.322,0.795 -0.641,0.797 -0.958,0.003 -2.227,-0.349 -2.84,-0.784 -0.618,-0.438 -0.34,-0.795 0.621,-0.804 m -12.843,-9.496 c 1.477,0.112 3.141,0.72 3.715,1.345 0.566,0.626 -0.166,1.03 -1.631,0.917 -1.457,-0.119 -3.105,-0.71 -3.685,-1.333 -0.585,-0.624 0.129,-1.042 1.601,-0.929"
                   style="fill:url(#linearGradient4533);stroke:none"
                   id="path4535"
                   inkscape:connector-curvature="0" /></g></g></g></g></g></g></g></svg>